<!DOCTYPE svg PUBLIC "-//W3C//DTD SVG 20010904//EN" "http://www.w3.org/TR/2001/REC-SVG-20010904/DTD/svg10.dtd">
<svg version="1.0" xmlns="http://www.w3.org/2000/svg" width="1024px" height="768px" viewBox="0 0 10240 7680" preserveAspectRatio="xMidYMid meet">
<g id="layer1" fill="#f2f0ed" stroke="none">
 <path d="M685 5790 c-3 -5 -26 -10 -49 -10 -27 0 -52 -7 -66 -18 -21 -17 -23 -26 -23 -137 l-1 -120 96 3 95 3 14 -29 c12 -24 12 -82 5 -353 -5 -178 -10 -396 -10 -484 -1 -155 0 -160 19 -157 123 22 164 30 188 40 16 7 36 12 46 12 30 0 51 33 51 81 1 35 3 40 11 27 8 -15 25 -18 104 -18 144 0 135 -28 135 411 0 413 -4 394 86 387 90 -8 85 18 83 -396 0 -200 3 -368 8 -373 14 -14 170 -21 193 -9 19 10 20 21 20 163 0 84 -4 157 -9 163 -5 5 -6 70 -1 154 4 80 3 228 -1 330 -8 162 -11 186 -28 203 -19 20 -62 28 -135 27 -49 -1 -56 -5 -56 -32 0 -19 -2 -20 -17 -6 -25 20 -70 38 -96 38 -12 0 -57 -18 -99 -40 -43 -22 -78 -37 -78 -34 0 2 -9 0 -20 -6 -11 -6 -20 -17 -20 -25 0 -8 -7 -15 -15 -15 -9 0 -20 -12 -25 -26 -6 -14 -12 -168 -14 -342 -4 -306 -13 -478 -24 -467 -3 2 -6 112 -7 242 -1 131 -4 245 -8 253 -3 8 -8 98 -10 200 -2 124 -8 195 -17 215 -7 17 -13 33 -12 37 2 10 -110 108 -119 103 -4 -3 -10 -1 -14 5 -8 13 -172 13 -180 0z m163 -171 c70 -56 67 -33 70 -556 3 -470 3 -473 -18 -473 -20 0 -20 4 -20 463 0 391 -2 469 -15 494 -27 55 -50 67 -131 71 -58 3 -74 7 -74 19 0 13 13 15 79 11 64 -4 84 -9 109 -29z m605 -71 c18 -13 47 -31 65 -41 28 -15 33 -15 37 -2 17 52 16 51 25 34 5 -8 9 -170 10 -360 1 -506 2 -479 -15 -479 -13 0 -15 47 -15 364 l0 364 -40 36 c-22 20 -45 36 -52 36 -6 0 -22 10 -34 21 -27 26 -97 28 -123 5 -10 -9 -22 -16 -27 -16 -5 0 -26 -16 -46 -35 l-38 -34 0 -366 c0 -289 -3 -366 -12 -363 -10 4 -14 90 -16 375 l-2 370 32 32 c17 17 37 31 44 31 6 0 18 7 25 16 33 40 133 47 182 12z"/>
 <path d="M4532 5787 c-8 -9 -8 -34 -1 -82 5 -38 10 -165 11 -283 1 -117 5 -215 10 -218 11 -7 10 -301 -1 -309 -14 -8 -13 -375 0 -392 16 -19 252 -19 268 1 8 9 12 89 12 255 l1 241 128 0 c71 0 135 2 143 5 11 5 14 -34 14 -252 l0 -258 143 0 144 0 -4 135 c-2 74 -4 300 -4 501 -1 298 2 371 13 392 11 21 12 32 3 52 -14 30 -16 117 -3 131 15 16 21 70 8 83 -13 13 -293 16 -301 3 -9 -14 -9 -183 -1 -313 4 -69 5 -142 1 -163 l-7 -36 -149 0 -150 0 0 49 c0 28 5 53 11 57 6 3 8 16 5 27 -3 12 0 27 6 34 6 7 7 23 4 35 -14 47 -17 159 -5 174 16 19 16 109 0 128 -11 13 -38 16 -151 16 -100 0 -140 -3 -148 -13z m168 -356 c0 -211 3 -261 14 -270 22 -18 497 -11 519 8 15 12 17 43 17 262 0 215 2 249 15 249 13 0 15 -58 16 -452 2 -470 0 -620 -7 -627 -2 -3 -10 1 -16 7 -8 8 -12 39 -10 87 1 41 2 90 2 108 0 17 0 92 0 165 1 93 -2 138 -11 148 -11 13 -51 15 -266 13 -278 -2 -280 -3 -268 -60 12 -51 -5 -491 -18 -486 -8 2 -10 32 -8 86 2 53 -1 87 -9 96 -7 8 -9 23 -5 32 9 22 8 515 -1 736 -7 156 -7 157 15 157 21 0 21 -1 21 -259z"/>
 <path d="M8186 5699 c-9 -17 -13 -41 -10 -54 3 -12 -1 -26 -9 -34 -8 -6 -13 -21 -10 -31 3 -11 0 -26 -6 -34 -6 -7 -9 -21 -5 -30 3 -9 1 -23 -5 -30 -7 -8 -9 -25 -6 -39 4 -14 2 -28 -4 -31 -6 -4 -11 -20 -11 -36 0 -16 -5 -32 -10 -35 -6 -4 -7 -12 -4 -18 5 -9 4 -9 -6 0 -7 7 -14 28 -15 49 -1 20 -7 39 -14 43 -6 4 -12 20 -14 37 -2 16 -9 39 -16 52 -11 20 -19 22 -105 22 -104 0 -110 -3 -121 -65 -4 -22 -11 -45 -16 -51 -5 -6 -14 -35 -21 -65 l-12 -54 -10 50 c-6 28 -14 55 -17 60 -4 6 -12 51 -19 100 -7 50 -16 95 -20 100 -4 6 -11 32 -14 58 -8 51 -26 68 -51 47 -9 -8 -29 -10 -50 -7 -19 3 -37 1 -41 -5 -3 -5 -18 -8 -32 -5 -14 3 -36 -2 -48 -10 -24 -15 -25 -44 -3 -103 5 -14 11 -43 12 -66 2 -23 7 -46 10 -52 4 -5 7 -21 7 -33 0 -52 9 -100 19 -113 6 -7 9 -21 5 -30 -3 -9 -1 -23 6 -31 7 -8 10 -26 8 -40 -3 -14 -1 -28 3 -31 5 -3 9 -20 9 -39 0 -19 5 -37 11 -41 7 -4 9 -21 6 -40 -3 -19 -1 -37 5 -40 5 -4 8 -19 4 -34 -3 -18 0 -33 9 -40 9 -8 11 -19 5 -40 -6 -20 -4 -34 6 -47 7 -10 13 -27 14 -38 0 -44 34 -161 51 -179 13 -14 36 -21 76 -24 106 -7 132 19 154 156 6 42 18 84 26 94 10 11 11 18 3 23 -8 5 -7 11 2 22 7 8 12 24 13 34 0 25 20 24 20 -1 0 -10 4 -22 8 -26 4 -4 7 -20 7 -35 0 -15 5 -31 11 -34 6 -4 8 -14 5 -22 -4 -9 -1 -22 5 -29 6 -8 9 -23 6 -34 -3 -11 -1 -23 4 -26 5 -3 9 -19 9 -35 0 -16 7 -41 16 -55 16 -24 19 -24 120 -20 56 2 107 7 112 10 5 3 12 42 16 88 4 45 12 88 18 96 7 8 11 29 10 48 -2 19 1 40 5 47 4 6 6 26 4 43 -1 18 3 35 9 39 6 4 9 18 5 34 -4 19 -1 32 9 41 10 8 14 21 10 36 -3 13 -3 32 1 41 4 10 7 30 6 45 -1 14 3 29 8 33 6 3 8 17 5 30 -3 12 -1 26 5 29 6 4 11 22 11 41 0 19 4 36 9 39 5 3 7 15 4 26 -3 11 -1 26 5 33 6 7 9 24 6 38 -5 21 -4 22 6 6 7 -10 10 -27 7 -37 -3 -11 1 -24 9 -30 7 -7 13 -24 13 -38 0 -44 7 -96 15 -114 5 -10 6 -24 3 -32 -3 -8 1 -20 9 -27 8 -7 12 -20 8 -31 -3 -10 -1 -25 5 -32 6 -7 11 -24 11 -37 -1 -45 7 -95 18 -115 6 -12 7 -26 2 -34 -6 -10 -4 -21 7 -32 10 -11 13 -26 9 -42 -3 -14 -1 -28 5 -32 7 -4 9 -20 6 -40 -3 -19 -1 -36 4 -40 6 -3 9 -18 7 -34 -1 -15 2 -34 8 -41 6 -8 14 -22 17 -31 6 -16 22 -18 150 -18 104 0 147 4 154 13 14 17 25 66 24 106 -1 18 4 40 11 49 7 8 11 27 10 42 -2 16 2 31 8 35 6 4 8 20 4 40 -3 18 -1 35 4 39 6 3 8 15 5 25 -3 11 2 30 11 42 11 16 12 27 5 41 -8 14 -7 24 3 35 7 9 11 26 10 38 -2 13 1 26 6 29 6 3 8 15 5 26 -3 11 -1 26 5 33 6 7 9 22 8 32 -2 11 3 28 11 37 9 10 13 25 9 33 -6 17 14 159 21 151 7 -7 4 -607 -3 -718 -9 -127 -8 -128 108 -128 84 0 90 2 114 27 15 16 22 33 19 44 -3 9 -1 20 5 24 6 3 8 11 4 16 -3 5 0 16 6 24 6 8 9 18 6 23 -3 5 8 28 24 51 17 22 28 41 25 41 -3 0 2 11 11 25 8 13 13 28 10 33 -2 4 12 30 33 58 20 27 39 54 41 59 1 6 9 24 17 42 7 18 13 36 13 41 0 5 6 15 14 21 11 9 14 -15 20 -141 11 -269 18 -363 28 -375 16 -19 172 -17 188 2 9 11 11 65 9 205 -2 183 -2 364 0 612 1 74 7 131 16 158 8 23 12 46 9 51 -3 5 -59 9 -125 9 l-119 0 -12 -27 c-6 -16 -10 -32 -9 -37 1 -4 -2 -13 -7 -20 -5 -6 -15 -29 -22 -51 -7 -22 -20 -51 -28 -65 -29 -43 -41 -64 -52 -88 -5 -13 -22 -39 -36 -58 -15 -19 -23 -34 -20 -34 4 0 1 -10 -6 -22 -7 -13 -11 -26 -11 -29 1 -4 -7 -15 -17 -24 -11 -10 -20 -24 -20 -30 0 -7 -6 -17 -13 -24 -11 -8 -14 10 -16 100 -1 71 2 116 10 125 7 8 11 63 12 146 l0 133 -74 3 c-41 1 -132 -1 -204 -5 l-130 -8 -14 -30 c-8 -16 -14 -52 -13 -80 1 -27 -4 -65 -11 -83 l-11 -33 -86 3 -85 3 -1 32 c0 17 -6 38 -13 47 -8 10 -11 26 -7 42 4 14 3 31 -3 37 -5 7 -11 23 -13 37 -3 24 -6 25 -103 31 -181 11 -250 20 -266 35 -15 14 -19 12 -33 -17z m-574 -186 c10 -54 29 -154 44 -223 14 -69 34 -174 44 -235 23 -134 33 -168 48 -173 14 -4 28 27 52 123 29 113 68 249 78 275 6 14 18 46 27 73 19 53 39 61 51 20 9 -33 9 -33 17 -53 21 -54 87 -275 97 -322 14 -69 38 -120 53 -115 11 3 22 44 31 112 2 17 11 64 19 105 41 197 55 269 62 314 11 81 42 190 54 194 20 7 12 -53 -16 -128 -4 -8 -5 -21 -4 -29 1 -7 -1 -20 -5 -30 -4 -9 -8 -27 -10 -41 -1 -14 -12 -72 -24 -130 -25 -126 -57 -299 -72 -392 -9 -59 -14 -68 -32 -68 -23 0 -33 28 -87 225 -12 44 -32 113 -45 154 -13 40 -24 77 -24 81 0 4 -7 25 -16 46 -25 60 -30 51 -114 -236 -19 -64 -40 -147 -62 -243 -9 -40 -14 -48 -32 -45 -17 2 -22 12 -28 53 -4 28 -10 61 -13 75 -4 14 -13 59 -20 100 -7 41 -16 89 -20 105 -3 17 -15 77 -26 135 -48 254 -55 286 -62 297 -9 14 2 88 11 79 3 -3 13 -50 24 -103z m1330 23 c-6 -28 -23 -116 -37 -196 -14 -80 -30 -159 -35 -175 -5 -17 -14 -66 -21 -110 -6 -44 -21 -131 -35 -192 -13 -62 -24 -115 -24 -118 0 -3 -33 -5 -73 -5 l-74 0 -13 43 c-12 39 -29 114 -50 217 -5 25 -14 68 -20 95 -5 28 -21 106 -35 175 -13 69 -31 158 -40 199 -15 69 -17 147 -3 111 11 -29 27 -96 37 -158 5 -35 15 -70 22 -78 9 -11 46 -14 169 -14 179 0 179 0 191 78 5 26 13 76 19 112 5 36 13 72 16 80 13 31 17 -12 6 -64z m210 -308 c2 -258 6 -362 14 -365 12 -4 49 57 146 237 18 33 37 63 101 158 15 23 27 45 27 49 0 5 12 25 26 46 31 46 88 148 112 200 10 22 23 36 32 34 13 -2 15 -59 18 -430 2 -377 1 -427 -13 -427 -13 0 -15 45 -15 374 0 242 -4 377 -10 381 -6 3 -18 -8 -28 -25 -9 -18 -31 -55 -49 -83 -18 -29 -39 -66 -48 -84 -8 -17 -35 -61 -60 -96 -25 -36 -45 -68 -45 -73 0 -4 -6 -15 -14 -23 -8 -9 -33 -52 -56 -96 -72 -135 -135 -238 -148 -243 -9 -3 -12 89 -12 412 0 267 4 416 10 416 6 0 11 -132 12 -362z m-1045 65 c-4 -3 -7 0 -7 7 0 7 3 10 7 7 3 -4 3 -10 0 -14z"/>
 <path d="M8559 5304 c-13 -16 1 -119 40 -284 10 -47 27 -119 36 -160 9 -41 22 -80 28 -87 7 -6 30 -13 52 -15 37 -3 41 -1 58 34 18 36 52 191 67 303 4 33 14 91 21 128 8 48 9 71 1 79 -6 6 -68 11 -151 13 -112 2 -143 0 -152 -11z m221 -93 c0 -11 -5 -23 -11 -27 -6 -3 -8 -17 -4 -31 3 -14 2 -30 -3 -36 -5 -7 -12 -37 -16 -67 -7 -53 -19 -80 -37 -80 -5 0 -9 11 -9 24 0 14 -5 28 -11 31 -6 4 -8 13 -5 20 2 7 0 17 -5 22 -6 6 -13 45 -16 87 l-6 76 62 0 c54 0 61 -2 61 -19z m-55 -261 c3 -5 1 -10 -4 -10 -6 0 -11 5 -11 10 0 6 2 10 4 10 3 0 8 -4 11 -10z"/>
 <path d="M3004 5705 c-4 -8 -15 -15 -26 -15 -11 0 -22 -8 -25 -20 -6 -23 -28 -27 -37 -5 -7 20 -198 22 -214 2 -7 -7 -17 -47 -23 -88 -6 -41 -16 -86 -21 -101 -10 -27 -13 -28 -83 -28 -95 0 -105 4 -105 45 0 19 -4 36 -9 39 -4 3 -11 28 -14 55 -10 87 -15 91 -115 91 -49 0 -93 -5 -98 -10 -7 -7 -20 -6 -40 4 -16 8 -44 17 -62 21 -30 6 -33 4 -48 -30 -8 -21 -27 -56 -41 -79 -15 -22 -26 -42 -25 -43 1 -2 -5 -17 -12 -35 -18 -45 -23 -61 -24 -72 0 -9 -22 -26 -33 -26 -20 0 -38 93 -19 105 5 3 7 12 4 19 -3 8 -1 17 4 20 12 7 7 115 -6 128 -5 5 -56 7 -113 6 l-104 -3 -3 -394 c-1 -228 2 -398 7 -405 5 -6 9 -61 8 -122 0 -61 3 -116 7 -122 5 -8 49 -12 141 -12 118 0 139 3 176 21 37 20 201 169 186 169 -4 0 2 15 12 33 28 50 24 209 -7 257 -12 19 -22 42 -22 50 0 8 -16 28 -36 44 -35 28 -36 29 -29 83 4 30 16 75 28 101 12 26 22 52 23 57 0 6 7 24 14 40 7 17 14 33 14 37 1 3 5 10 10 15 5 5 6 -2 3 -16 -3 -14 -2 -30 2 -35 9 -11 18 -51 27 -116 17 -124 25 -163 36 -177 5 -7 7 -21 3 -32 -3 -10 -1 -22 5 -26 5 -3 10 -18 10 -33 -1 -38 10 -93 22 -119 6 -12 8 -29 5 -37 -3 -8 -2 -18 2 -21 5 -2 12 -38 16 -80 4 -41 11 -77 16 -81 5 -3 9 -22 9 -43 0 -22 8 -48 18 -60 16 -21 24 -22 162 -19 l144 3 9 35 c5 19 10 53 12 75 2 22 4 40 5 40 4 0 31 171 31 197 0 15 4 30 9 33 6 4 10 21 10 40 0 19 5 37 10 40 6 3 7 17 4 31 -3 13 -1 30 5 38 6 7 9 21 5 30 -3 9 0 24 7 33 8 8 12 26 11 38 -2 13 1 26 7 29 6 4 8 20 4 36 -3 17 0 36 6 44 6 7 9 20 5 29 -3 8 -1 18 5 22 6 3 11 19 11 35 0 50 20 47 71 -11 26 -30 45 -57 43 -61 -2 -4 1 -10 8 -15 7 -4 14 -17 16 -28 1 -11 5 -34 8 -52 5 -25 0 -41 -27 -80 -18 -26 -33 -50 -32 -53 1 -3 -8 -21 -20 -40 -11 -19 -27 -48 -35 -65 -7 -16 -19 -33 -27 -38 -11 -6 -13 -25 -10 -84 3 -41 9 -81 14 -87 5 -6 10 -14 11 -18 4 -27 31 -70 70 -112 25 -26 44 -54 42 -61 -3 -18 62 -65 90 -65 29 0 65 26 142 102 54 53 64 78 31 78 -7 0 -15 7 -19 15 -3 8 -12 15 -20 15 -18 0 -75 65 -92 106 -18 42 -3 118 32 165 13 18 24 38 24 44 0 6 13 32 29 58 17 25 35 64 40 85 15 53 -2 140 -39 206 -16 28 -37 66 -46 84 -10 19 -25 39 -36 45 -10 7 -18 17 -18 22 0 19 -93 95 -115 95 -3 0 -8 -7 -11 -15z m-208 -177 c-4 -40 -12 -77 -17 -82 -5 -6 -9 -22 -9 -36 0 -14 -4 -30 -9 -35 -5 -6 -11 -35 -14 -65 -7 -82 -26 -202 -37 -225 -8 -19 -25 -116 -37 -210 -3 -22 -9 -44 -14 -49 -5 -6 -9 -20 -9 -32 0 -49 -8 -54 -81 -54 -38 0 -69 3 -69 8 0 4 24 6 53 4 65 -4 72 3 92 94 50 223 73 352 78 428 3 39 -15 44 -174 45 -149 1 -155 -2 -139 -73 5 -25 17 -93 25 -152 8 -59 19 -112 23 -118 5 -6 15 -40 22 -76 7 -36 17 -73 22 -83 5 -10 5 -24 -1 -35 -8 -14 -10 -15 -15 -2 -7 23 -26 107 -42 190 -8 41 -17 84 -21 95 -3 11 -15 63 -25 115 -31 158 -56 273 -67 315 -13 49 -14 95 -2 95 5 0 11 -15 14 -32 23 -137 37 -201 48 -214 9 -11 44 -14 170 -14 197 0 180 -16 211 198 6 39 16 72 21 72 6 0 7 -28 3 -72z m-964 -69 c2 -105 6 -133 18 -140 42 -21 90 -39 107 -39 10 0 24 -5 30 -11 16 -16 43 -3 43 20 0 11 4 23 10 26 5 3 14 25 20 48 6 23 17 56 24 72 7 17 24 58 37 93 13 34 27 62 31 62 12 0 11 -4 -18 -67 -61 -135 -74 -179 -74 -248 0 -36 6 -54 26 -78 14 -17 36 -54 49 -82 23 -52 40 -155 26 -155 -12 0 -21 26 -21 61 0 42 -24 95 -73 158 -48 62 -114 98 -187 103 l-45 3 -3 -274 c-2 -193 1 -278 9 -287 13 -15 75 -19 83 -5 3 4 22 11 41 14 47 8 161 124 176 180 5 20 14 37 19 37 14 0 12 -21 -5 -54 -8 -15 -15 -33 -15 -40 0 -15 -59 -86 -71 -86 -6 0 -25 -11 -42 -24 -37 -28 -101 -45 -169 -46 l-48 0 0 445 c0 281 4 445 10 445 5 0 11 -55 12 -131z m1273 0 c20 -38 40 -71 45 -74 6 -3 10 -41 10 -84 0 -68 -3 -83 -25 -112 -30 -41 -85 -153 -85 -173 0 -8 -4 -18 -10 -21 -18 -11 -11 -86 12 -134 12 -25 35 -60 51 -78 28 -29 32 -63 8 -63 -16 0 -80 79 -86 107 -4 16 -10 36 -16 45 -5 10 -9 46 -9 81 0 55 6 74 51 162 28 55 56 106 61 113 14 17 14 88 0 139 -7 23 -28 63 -47 90 -19 26 -42 58 -51 70 -9 13 -13 30 -10 40 10 25 57 -26 101 -108z m-475 -253 c0 -14 -5 -28 -10 -31 -6 -4 -8 -16 -5 -26 4 -11 2 -25 -3 -32 -5 -7 -12 -36 -15 -66 -4 -29 -11 -59 -17 -66 -6 -7 -8 -20 -4 -29 3 -9 1 -16 -4 -16 -6 0 -16 26 -22 58 -7 31 -17 62 -22 69 -5 6 -12 46 -15 87 l-6 76 62 0 c58 0 61 -1 61 -24z m-651 -92 c30 -19 41 -35 50 -69 15 -59 14 -69 -9 -120 -19 -41 -65 -85 -89 -85 -7 0 -11 38 -11 113 0 104 7 187 17 187 2 0 21 -12 42 -26z"/>
 <path d="M3414 5705 c-4 -8 -14 -15 -25 -15 -10 0 -23 -9 -29 -20 -6 -11 -17 -20 -26 -20 -8 0 -17 -7 -21 -16 -3 -8 -16 -20 -30 -25 -13 -5 -26 -15 -29 -23 -7 -18 32 -76 51 -76 7 0 29 -22 49 -50 20 -27 41 -50 47 -50 5 0 8 -4 4 -9 -3 -5 0 -13 6 -16 5 -4 8 -13 5 -20 -2 -7 2 -21 9 -32 8 -10 15 -29 15 -41 0 -23 -32 -79 -54 -94 -5 -3 -11 -17 -13 -30 -2 -12 -15 -39 -28 -58 -14 -20 -25 -41 -25 -46 0 -6 -9 -19 -19 -29 -38 -34 -11 -184 47 -262 13 -18 21 -37 18 -42 -4 -5 7 -18 24 -27 16 -10 30 -26 30 -35 0 -23 63 -69 94 -69 14 0 35 9 46 20 11 11 24 20 29 20 7 0 24 18 99 109 11 13 12 6 10 -44 l-3 -60 94 -3 c75 -2 97 0 112 14 17 15 18 42 16 432 -1 302 1 431 10 467 8 30 10 64 5 85 l-8 35 -114 0 -115 0 -15 -43 c-13 -37 -13 -45 0 -65 11 -18 14 -95 15 -410 l2 -387 -22 20 c-12 11 -26 20 -32 20 -6 0 -26 17 -45 38 -34 38 -48 79 -44 132 1 25 65 164 96 210 35 51 46 162 22 220 -6 14 -13 32 -16 40 -4 8 -15 29 -26 45 -11 17 -24 40 -30 53 -5 12 -14 22 -20 22 -5 0 -10 7 -10 15 0 8 -9 19 -20 25 -11 6 -19 14 -17 19 2 9 -93 91 -106 91 -4 0 -10 -7 -13 -15z m49 -160 c15 -19 45 -73 67 -120 37 -81 38 -86 30 -147 -7 -44 -25 -94 -66 -173 -54 -106 -56 -112 -50 -169 6 -61 53 -159 81 -170 8 -3 15 -12 15 -20 0 -52 -68 4 -104 86 -40 91 -32 156 36 293 31 61 59 125 63 142 11 53 -49 205 -99 252 -27 26 -35 61 -13 61 6 0 25 -16 40 -35z m357 -395 c0 -376 -2 -430 -15 -430 -13 0 -15 54 -15 430 0 376 2 430 15 430 13 0 15 -54 15 -430z"/>
 <path d="M4183 5697 c-66 -25 -233 -240 -233 -301 0 -8 -4 -18 -10 -21 -5 -3 -7 -19 -3 -35 3 -18 0 -36 -7 -45 -10 -12 -11 -44 -5 -138 4 -67 8 -134 9 -149 1 -14 4 -30 9 -34 4 -4 7 -16 7 -26 0 -10 7 -35 17 -56 9 -20 16 -40 15 -43 -1 -4 9 -18 21 -31 13 -14 21 -30 19 -37 -2 -7 5 -15 16 -18 12 -3 18 -11 15 -19 -3 -8 2 -17 11 -20 9 -3 16 -12 16 -18 0 -22 89 -94 109 -89 10 3 22 0 25 -6 4 -6 11 -11 15 -11 4 0 43 39 85 87 l78 86 -38 33 c-22 18 -46 36 -55 39 -9 3 -21 16 -27 30 -6 13 -29 36 -51 50 -57 35 -78 88 -86 211 -5 70 -3 108 6 129 7 17 13 33 13 37 1 3 4 10 9 14 4 4 7 15 7 25 0 10 11 28 24 41 13 13 26 32 28 42 3 20 35 43 97 71 19 9 50 27 69 41 32 25 33 27 16 45 -9 10 -23 19 -30 19 -7 0 -28 18 -47 40 -19 22 -41 40 -49 40 -8 0 -23 7 -34 15 -22 17 -20 17 -61 2z m50 -123 c3 -3 -16 -32 -41 -64 -85 -105 -138 -210 -156 -303 -8 -45 14 -154 49 -238 26 -60 121 -199 137 -199 5 0 8 -9 8 -20 0 -31 -14 -24 -65 32 -50 56 -71 93 -116 208 -25 64 -29 88 -29 170 1 111 15 160 79 269 42 71 106 151 120 151 4 0 10 -3 14 -6z"/>
 <path d="M5992 5681 c-90 -6 -93 -7 -108 -36 -9 -17 -16 -52 -15 -80 0 -27 -5 -64 -11 -83 l-12 -33 -86 3 -85 3 -1 33 c0 18 -6 38 -12 44 -15 15 -16 45 -1 53 7 5 5 13 -7 26 -9 10 -14 25 -11 33 11 28 -19 37 -113 34 -105 -3 -125 -16 -101 -61 7 -14 10 -30 6 -36 -4 -7 -1 -18 5 -26 7 -9 9 -26 6 -41 -4 -15 -2 -32 5 -40 6 -8 9 -23 6 -34 -3 -10 1 -24 9 -30 7 -7 13 -24 14 -38 1 -53 6 -97 14 -114 5 -10 6 -24 3 -32 -3 -8 1 -20 9 -27 9 -8 13 -21 10 -35 -4 -13 -2 -26 4 -29 6 -3 10 -18 10 -33 -1 -52 7 -102 19 -116 7 -8 10 -24 6 -35 -3 -10 -1 -22 5 -26 6 -4 10 -21 9 -39 -1 -17 2 -39 6 -49 4 -9 5 -27 2 -39 -4 -13 0 -29 9 -39 12 -13 13 -22 5 -38 -8 -14 -8 -22 0 -26 5 -4 14 -18 19 -31 l10 -25 152 3 153 3 8 40 c5 22 8 53 8 69 0 16 5 36 11 44 7 7 11 29 10 47 -2 18 2 36 8 40 6 4 8 20 4 40 -3 20 -1 35 6 40 6 4 8 16 5 26 -4 11 -1 26 5 34 12 14 20 62 20 117 0 15 4 30 10 33 6 3 7 17 4 30 -3 12 -1 26 5 29 6 4 11 20 11 35 0 15 3 30 6 34 3 3 7 32 9 64 1 32 7 74 13 93 l10 35 1 -30 c2 -25 0 -263 -3 -745 l-1 -75 98 -3 c94 -3 98 -2 122 24 14 15 24 32 23 38 0 6 5 25 12 41 7 17 12 34 11 39 -1 4 3 14 10 22 6 7 8 17 5 22 -3 5 1 18 9 28 8 10 15 26 15 35 0 9 6 22 14 28 8 7 17 24 21 39 4 15 19 43 33 62 15 19 27 37 28 40 0 3 8 22 17 42 10 21 17 42 17 47 0 5 6 11 14 14 16 6 18 -17 34 -343 4 -85 11 -161 15 -167 12 -20 171 -18 187 2 9 11 12 65 10 202 -3 183 -3 372 -1 617 1 66 5 124 10 130 5 6 11 27 13 46 l3 35 -123 3 -122 3 -12 -28 c-6 -15 -12 -32 -13 -38 0 -5 -6 -23 -13 -38 -7 -16 -12 -34 -12 -41 0 -7 -11 -30 -25 -50 -14 -20 -25 -41 -25 -45 0 -5 -6 -14 -14 -20 -8 -7 -17 -25 -21 -40 -3 -16 -16 -39 -28 -52 -12 -12 -23 -32 -24 -43 -2 -11 -11 -31 -21 -44 -9 -14 -22 -33 -28 -43 -24 -42 -26 -29 -20 116 4 83 7 197 8 255 l1 105 -109 1 c-60 0 -151 -2 -202 -5z m2 -103 c-8 -58 -34 -211 -54 -313 -10 -55 -26 -145 -35 -200 -9 -55 -28 -151 -42 -212 l-25 -113 -73 0 -73 0 -7 33 c-3 17 -17 71 -31 120 -13 48 -34 138 -45 200 -11 61 -22 121 -24 132 -2 11 -11 62 -20 114 -9 52 -20 102 -25 111 -14 27 -25 157 -12 145 6 -5 13 -26 16 -45 14 -95 37 -194 47 -206 17 -20 321 -20 338 0 12 14 20 52 43 194 7 39 15 72 19 72 4 0 6 -15 3 -32z m686 -413 c0 -283 -3 -435 -10 -435 -12 0 -11 -15 -19 408 -4 211 -10 343 -16 343 -5 1 -17 -11 -26 -27 -9 -16 -35 -58 -58 -94 -23 -36 -47 -76 -53 -90 -7 -14 -24 -43 -39 -65 -15 -22 -43 -71 -64 -109 -20 -37 -53 -94 -73 -125 -20 -31 -45 -74 -55 -95 -23 -51 -70 -125 -79 -126 -5 0 -8 189 -8 420 0 270 4 420 10 420 6 0 11 -132 12 -362 2 -269 6 -362 15 -365 7 -3 26 24 43 59 17 35 37 70 45 78 12 14 81 132 112 192 8 15 18 30 23 33 4 3 17 22 28 42 28 55 63 116 72 128 7 10 59 101 87 155 7 14 13 31 13 38 0 6 9 12 20 12 20 0 20 -7 20 -435z"/>
 <path d="M5610 5305 c-11 -13 -11 -31 3 -108 31 -179 45 -243 60 -287 8 -25 18 -66 22 -92 9 -58 22 -70 72 -66 34 3 40 8 60 49 31 64 101 485 84 502 -8 8 -58 13 -150 15 -117 3 -139 1 -151 -13z m220 -94 c0 -11 -5 -23 -11 -27 -6 -3 -8 -17 -4 -31 3 -14 2 -30 -3 -36 -5 -7 -12 -37 -16 -67 -4 -30 -12 -60 -18 -67 -6 -7 -8 -20 -4 -28 3 -8 1 -15 -4 -15 -5 0 -14 26 -20 58 -7 31 -17 62 -22 69 -5 6 -12 46 -15 87 l-6 76 62 0 c54 0 61 -2 61 -19z"/>
 <path d="M7246 5671 c-3 -4 -29 -11 -59 -14 -29 -3 -71 -14 -92 -25 -22 -11 -44 -22 -50 -23 -5 -2 -42 -38 -81 -79 -60 -63 -75 -86 -94 -145 -13 -38 -27 -79 -32 -90 -4 -11 -6 -76 -4 -145 6 -144 8 -170 19 -187 4 -7 9 -28 11 -48 3 -29 19 -51 105 -135 55 -55 107 -100 115 -100 7 0 19 -6 26 -14 6 -8 18 -12 26 -9 8 3 20 1 27 -5 24 -19 194 -35 247 -22 20 5 27 15 33 51 14 71 7 162 -13 174 -3 2 -45 5 -91 5 -131 2 -147 7 -201 62 -26 27 -51 61 -54 76 -4 15 -11 32 -16 39 -13 17 -23 167 -12 190 4 10 8 23 9 28 1 6 10 28 20 50 10 22 19 43 19 46 3 15 55 67 74 73 21 7 22 5 24 -146 l3 -153 112 0 113 0 4 262 4 263 -31 15 c-32 16 -152 21 -161 6z m100 -143 c-3 -29 -6 -113 -6 -186 0 -103 -3 -133 -12 -130 -10 3 -14 51 -18 174 l-5 169 -52 3 c-38 2 -63 -3 -95 -19 -53 -27 -88 -54 -102 -78 -43 -74 -76 -144 -76 -159 0 -10 -5 -23 -11 -29 -10 -10 -15 -172 -5 -208 24 -93 38 -131 59 -168 34 -57 111 -127 140 -127 13 0 28 -5 33 -10 6 -6 43 -11 82 -12 59 -2 72 -5 70 -18 -7 -34 -140 -15 -237 33 -116 58 -195 273 -172 472 7 64 18 97 55 170 68 135 130 173 275 174 l84 1 -7 -52z"/>
 </g>
<g id="layer2" fill="#fbfa04" stroke="none">
 <path d="M4930 7499 c-340 -26 -549 -64 -838 -156 -202 -64 -218 -70 -487 -198 -331 -157 -633 -361 -920 -621 l-90 -82 -1154 -3 c-748 -3 -1159 -8 -1167 -14 -11 -8 -15 -204 -21 -1070 -5 -583 -8 -1152 -8 -1265 l0 -205 646 -3 646 -2 5 -263 c3 -144 10 -282 16 -307 6 -25 21 -110 33 -189 11 -80 25 -154 29 -165 4 -12 13 -46 20 -76 18 -84 123 -413 138 -435 5 -5 16 -35 26 -65 10 -30 29 -77 41 -105 13 -27 33 -72 45 -100 146 -326 389 -679 665 -964 595 -615 1320 -978 2170 -1087 175 -23 625 -26 785 -6 162 21 373 59 500 91 123 31 259 70 275 80 6 3 37 15 70 27 33 12 89 31 124 44 90 32 377 177 506 255 395 241 745 560 1057 966 263 343 505 859 618 1319 66 270 100 540 100 798 l0 172 634 0 c525 0 636 2 645 14 8 10 13 354 17 1275 5 1057 4 1262 -7 1266 -8 2 -537 6 -1177 7 -1049 3 -1164 5 -1172 19 -13 22 -256 232 -343 296 -264 193 -576 375 -817 477 -25 10 -68 29 -96 41 -95 42 -398 134 -524 159 -169 34 -169 34 -300 51 -258 32 -478 40 -690 24z m487 -269 c513 -42 1080 -230 1513 -503 192 -121 299 -202 522 -394 l108 -93 1002 0 c552 0 1066 -3 1143 -6 l140 -7 -3 -1071 c-2 -589 -5 -1072 -6 -1074 -2 -1 -286 -2 -631 -2 -447 0 -632 -3 -641 -11 -11 -9 -12 -48 -7 -198 10 -318 -26 -645 -108 -961 -64 -249 -147 -466 -277 -727 -192 -386 -469 -744 -785 -1016 -166 -142 -215 -180 -407 -308 -420 -280 -840 -437 -1390 -520 -197 -30 -651 -33 -865 -5 -519 67 -1048 260 -1425 521 -41 28 -106 73 -145 100 -69 47 -230 177 -250 200 -5 6 -38 35 -72 63 -65 54 -243 245 -343 367 -268 328 -503 796 -630 1254 -88 317 -122 576 -124 948 -1 178 -6 277 -13 284 -7 7 -204 9 -637 7 l-626 -3 0 70 c-3 635 5 2083 12 2090 2 3 514 5 1136 5 l1132 1 57 48 c32 27 74 63 93 81 19 18 78 67 130 109 448 363 973 601 1570 710 262 48 555 63 827 41z"/>
 </g>
<g id="layer3" fill="#fb0402" stroke="none">
 <path d="M5515 6849 c-4 -5 1 -19 11 -30 16 -17 19 -18 32 -5 13 12 13 18 2 30 -14 18 -36 21 -45 5z"/>
 <path d="M5632 6828 c-8 -10 -8 -20 1 -38 16 -32 36 -35 67 -10 20 16 23 22 14 37 -14 22 -67 29 -82 11z"/>
 <path d="M5537 6777 l-26 -34 23 -22 c27 -25 58 -27 77 -5 11 13 10 22 -6 52 -11 20 -25 37 -31 39 -6 2 -23 -12 -37 -30z"/>
 <path d="M3998 6789 c-21 -12 -23 -40 -6 -57 7 -7 13 -20 13 -30 0 -23 40 -28 71 -8 35 24 32 61 -8 86 -37 22 -46 24 -70 9z"/>
 <path d="M4502 6788 c-20 -20 -13 -45 20 -72 24 -18 36 -22 45 -14 20 16 15 52 -10 76 -27 25 -38 27 -55 10z"/>
 <path d="M4403 6769 c-4 -14 -11 -18 -22 -13 -25 11 -55 6 -67 -11 -14 -20 -38 -19 -70 1 -19 13 -28 14 -37 5 -6 -6 -20 -11 -32 -11 -12 0 -26 -5 -33 -12 -14 -14 -16 -114 -2 -123 9 -6 39 8 75 35 18 14 19 14 6 -3 -12 -15 -12 -20 2 -35 8 -9 17 -26 19 -37 5 -31 42 -31 62 0 10 15 15 33 12 41 -7 18 4 17 28 -1 11 -8 26 -15 33 -15 21 0 27 29 10 48 -14 16 -14 17 9 18 50 3 91 64 74 109 -12 32 -59 35 -67 4z"/>
 <path d="M5732 6776 c-33 -19 -72 -58 -72 -72 0 -6 7 -18 16 -25 14 -11 19 -10 33 6 9 11 29 21 46 22 32 1 68 36 63 62 -4 20 -55 24 -86 7z"/>
 <path d="M4989 6762 c-24 -20 -21 -52 4 -52 21 0 50 37 44 55 -8 20 -20 19 -48 -3z"/>
 <path d="M3917 6750 c-33 -26 -34 -35 -2 -56 33 -22 57 -4 53 39 -4 39 -18 43 -51 17z"/>
 <path d="M5899 6724 c-7 -8 -30 -24 -51 -35 -31 -16 -38 -25 -38 -50 0 -19 6 -31 18 -35 9 -3 32 -12 49 -21 31 -15 32 -17 15 -29 -10 -7 -31 -16 -45 -19 -15 -4 -30 -11 -33 -17 -8 -13 14 -36 39 -41 15 -3 12 -5 -10 -6 -71 -3 -106 -35 -65 -61 13 -9 4 -10 -41 -6 -45 5 -59 3 -63 -9 -5 -13 -10 -13 -41 0 -25 11 -40 12 -48 5 -9 -7 -15 -6 -22 2 -15 19 -33 79 -27 89 2 5 -4 14 -15 20 -10 7 -17 19 -14 26 4 9 -3 16 -16 20 -32 8 -46 51 -25 74 21 24 11 49 -19 49 -33 0 -64 -35 -48 -54 9 -11 9 -16 1 -21 -7 -4 -9 -16 -7 -27 5 -16 2 -19 -14 -15 -25 7 -36 -17 -19 -38 16 -19 1 -19 -24 0 -11 8 -30 15 -41 15 -12 0 -30 9 -40 20 -13 15 -21 17 -31 9 -10 -8 -19 -7 -36 5 -28 20 -39 20 -63 2 -17 -12 -18 -16 -5 -32 14 -16 13 -17 -12 -12 -42 8 -51 -12 -24 -53 25 -36 41 -79 31 -79 -3 0 -19 14 -35 31 -30 34 -60 34 -60 2 0 -10 -8 -23 -18 -30 -16 -9 -24 -6 -50 18 -18 17 -32 39 -32 49 0 53 -50 23 -83 -50 -19 -42 -21 -43 -30 -23 -8 18 -5 26 19 46 24 21 26 27 16 40 -11 12 -11 19 -1 36 11 17 10 23 -5 40 -25 27 -61 27 -80 -1 -12 -16 -26 -21 -62 -22 -50 -1 -73 -23 -35 -33 l22 -6 -21 -14 c-11 -8 -18 -18 -15 -22 2 -5 -7 -13 -21 -19 -18 -9 -29 -9 -43 0 -15 9 -23 9 -35 -1 -14 -12 -19 -11 -36 4 -11 10 -23 15 -27 12 -4 -4 -17 2 -29 14 -22 21 -25 21 -48 5 -14 -9 -33 -16 -42 -16 -9 0 -18 -9 -21 -20 -4 -14 -14 -20 -32 -20 -31 0 -77 -42 -66 -60 5 -9 1 -10 -13 -6 -14 5 -24 1 -31 -11 -10 -16 -14 -14 -44 20 -30 35 -35 37 -47 22 -12 -15 -14 -15 -23 0 -6 12 -17 14 -37 10 -16 -3 -31 -2 -35 4 -3 6 -1 11 5 11 21 0 22 30 1 56 -26 34 -30 66 -3 36 24 -28 60 -38 68 -18 4 9 1 23 -6 31 -10 13 -10 19 4 33 21 24 22 110 2 118 -20 8 -68 -26 -62 -42 3 -8 -1 -14 -9 -14 -8 0 -20 -9 -27 -19 -9 -14 -16 -17 -24 -10 -7 6 -25 14 -41 19 l-28 8 27 1 c63 2 32 61 -32 61 -24 0 -43 -7 -54 -19 -22 -24 -13 -41 19 -41 29 0 41 -16 19 -24 -9 -4 -14 -13 -10 -21 7 -19 4 -19 -50 6 -34 17 -48 19 -57 10 -9 -9 -8 -16 1 -32 7 -11 10 -24 7 -29 -3 -5 -1 -11 5 -15 5 -3 15 -16 21 -27 10 -18 4 -16 -28 10 -22 17 -46 38 -53 47 -15 18 -40 3 -40 -24 0 -11 -9 -5 -26 17 -14 18 -30 29 -36 26 -7 -5 -9 2 -6 20 8 39 -21 71 -54 63 -36 -9 -220 -132 -363 -242 -140 -108 -163 -131 -148 -146 17 -17 4209 -25 4229 -8 13 10 10 17 -18 47 -60 63 -316 248 -448 325 -58 33 -187 80 -200 72 -15 -9 -12 -23 10 -45 19 -19 19 -20 2 -20 -10 0 -23 -5 -29 -11 -9 -9 -19 -6 -41 10 -27 19 -31 19 -43 5 -12 -14 -15 -14 -31 6 -10 12 -18 35 -18 50 0 15 -7 33 -15 40 -21 18 -45 -4 -45 -42 0 -18 -4 -27 -10 -23 -6 4 -17 1 -25 -5 -16 -13 -20 -1 -16 42 3 21 -59 54 -83 45 -9 -4 -16 -15 -16 -26 0 -11 -4 -23 -10 -26 -19 -12 -10 -45 15 -57 30 -14 33 -35 5 -42 -11 -3 -30 -9 -42 -12 l-23 -7 24 20 c21 17 22 20 7 32 -14 12 -19 11 -36 -4 -11 -10 -19 -23 -17 -29 2 -6 -6 -18 -17 -28 -19 -15 -19 -18 -6 -32 12 -13 23 -14 50 -6 20 6 38 6 43 1 14 -14 -28 -23 -86 -19 -46 3 -52 1 -52 -17 0 -13 12 -26 35 -37 19 -10 35 -20 35 -23 0 -2 -16 -13 -36 -23 -32 -16 -36 -16 -32 -2 2 9 -5 25 -17 35 -22 19 -22 19 -36 0 -11 -15 -14 -15 -14 -3 0 21 -36 52 -45 39 -15 -25 -25 -8 -25 42 0 32 6 61 16 75 12 17 13 26 5 36 -9 10 -7 15 9 19 35 9 24 43 -24 71 -52 31 -50 30 -67 10z m168 -341 c-4 -3 -10 -3 -14 0 -3 4 0 7 7 7 7 0 10 -3 7 -7z m-1952 -33 c3 -5 4 -10 1 -10 -3 0 -8 5 -11 10 -3 6 -4 10 -1 10 3 0 8 -4 11 -10z"/>
 <path d="M4792 6718 c-16 -16 -15 -50 2 -74 19 -25 47 -10 58 31 12 45 -29 74 -60 43z"/>
 <path d="M5134 6715 c-7 -18 13 -45 33 -45 19 0 28 27 13 45 -16 19 -39 19 -46 0z"/>
 <path d="M3774 6695 c-23 -35 -12 -59 24 -50 15 3 33 13 41 20 13 13 12 17 -4 35 -24 27 -41 25 -61 -5z"/>
 <path d="M5000 6696 c-41 -15 -48 -35 -21 -60 19 -18 22 -18 56 -2 36 17 45 42 23 64 -14 14 -13 14 -58 -2z"/>
 <path d="M4570 6680 c-8 -16 -6 -22 14 -36 28 -18 46 -12 46 15 0 39 -42 54 -60 21z"/>
 <path d="M4647 6693 c-11 -10 -8 -28 7 -48 12 -17 16 -17 30 -6 15 13 16 11 6 -14 -15 -39 8 -63 46 -49 44 15 52 39 24 69 -14 15 -30 23 -39 20 -9 -3 -12 -3 -8 1 11 12 -14 34 -38 34 -12 0 -25 -3 -28 -7z"/>
 <path d="M5552 6682 c-17 -5 -45 -69 -39 -86 12 -30 87 -25 87 6 0 5 10 18 22 28 18 15 20 20 10 33 -13 15 -59 26 -80 19z"/>
 <path d="M5724 6666 c-13 -21 -14 -29 -4 -41 27 -33 75 -7 68 37 -5 34 -42 36 -64 4z"/>
 <path d="M6043 6664 c-16 -42 40 -69 71 -35 15 17 16 23 6 36 -17 20 -69 20 -77 -1z"/>
 <path d="M5114 6648 c-8 -13 30 -48 52 -48 20 0 29 27 14 45 -15 18 -56 20 -66 3z"/>
 <path d="M4562 6598 c-18 -18 -15 -32 13 -58 24 -23 26 -23 43 -7 19 19 11 40 -24 64 -16 10 -23 10 -32 1z"/>
 <path d="M4166 6558 c-15 -20 -14 -24 7 -46 l22 -23 22 27 c21 26 21 30 6 46 -21 24 -39 23 -57 -4z"/>
 <path d="M4322 6547 l-22 -23 28 -27 c15 -15 31 -27 35 -27 3 0 18 16 34 36 26 35 26 37 8 50 -28 21 -59 17 -83 -9z"/>
 <path d="M5561 6526 c-9 -11 -10 -20 -1 -36 12 -23 28 -23 43 2 22 34 -17 65 -42 34z"/>
 <path d="M4646 5702 c-3 -5 -2 -182 2 -394 5 -212 5 -418 1 -459 -4 -44 -3 -79 3 -86 5 -6 8 -50 7 -97 -3 -94 7 -120 39 -100 14 9 18 36 25 175 4 90 6 209 4 265 l-4 101 255 2 254 2 -2 -138 c0 -76 0 -153 0 -170 0 -18 0 -66 -2 -105 -2 -84 12 -121 45 -116 20 3 22 10 27 93 3 50 3 299 0 555 l-5 465 -30 0 -30 0 -3 -256 c-2 -256 -2 -257 -25 -263 -12 -3 -127 -6 -254 -6 l-233 0 -2 268 -3 267 -32 3 c-17 2 -34 -1 -37 -6z"/>
 <path d="M644 5656 c-3 -8 -4 -23 -2 -33 3 -15 16 -19 78 -23 79 -5 113 -20 127 -55 4 -11 10 -234 13 -495 l5 -475 35 0 35 0 3 459 c1 287 -2 472 -8 496 -13 49 -76 117 -120 130 -55 16 -160 13 -166 -4z"/>
 <path d="M7567 5633 c-10 -18 -17 -84 -10 -96 7 -11 14 -43 62 -297 11 -58 23 -118 26 -135 4 -16 13 -64 20 -105 7 -41 16 -86 20 -100 3 -14 9 -48 14 -75 9 -63 16 -75 45 -75 30 0 41 14 54 70 31 131 44 181 62 240 10 36 29 99 41 140 12 41 25 79 29 84 5 5 14 -11 20 -35 7 -24 20 -69 30 -99 10 -30 27 -91 39 -135 34 -128 63 -219 74 -232 5 -7 20 -13 32 -13 32 0 41 16 53 90 17 101 49 275 72 390 12 58 23 116 24 130 2 14 6 32 10 41 4 10 6 23 5 30 -1 8 0 21 4 29 33 88 35 135 7 150 -16 8 -21 6 -32 -12 -15 -28 -44 -137 -53 -204 -7 -45 -23 -127 -62 -314 -9 -41 -17 -86 -18 -100 -4 -42 -17 -80 -25 -75 -4 2 -13 33 -19 67 -10 51 -74 264 -98 328 -3 8 -7 20 -9 25 -16 67 -47 91 -74 57 -17 -20 -64 -152 -94 -262 -28 -102 -44 -165 -51 -194 -11 -49 -25 -16 -45 105 -10 63 -30 170 -44 239 -15 69 -35 171 -45 227 -11 57 -22 107 -26 113 -7 12 -32 13 -38 3z"/>
 <path d="M2785 5620 c-16 -6 -22 -22 -31 -86 -11 -74 -17 -107 -29 -161 -5 -23 -8 -23 -165 -23 -88 0 -160 1 -160 3 0 1 -7 40 -16 87 -8 47 -18 99 -21 117 -6 37 -26 58 -48 49 -18 -6 -19 -53 -4 -111 11 -42 36 -157 67 -315 10 -52 22 -104 25 -115 4 -11 13 -54 21 -95 23 -118 41 -193 54 -223 12 -28 12 -28 94 -25 l83 3 11 40 c6 22 13 47 17 55 3 8 8 33 10 55 10 85 29 191 37 210 10 21 29 137 37 220 3 28 9 54 14 60 5 5 9 21 9 36 0 15 4 30 9 33 12 8 26 175 15 186 -5 4 -18 4 -29 0z m-97 -326 c20 -6 22 -11 17 -33 -4 -14 -9 -39 -10 -56 -7 -57 -33 -204 -39 -213 -3 -5 -10 -40 -16 -78 -6 -38 -16 -86 -22 -106 -11 -36 -13 -38 -54 -38 -37 0 -42 3 -42 23 0 29 -30 157 -43 180 -5 10 -16 65 -24 123 -8 58 -19 124 -25 147 -5 23 -10 45 -10 50 0 8 235 9 268 1z"/>
 <path d="M5965 5618 c-2 -7 -6 -38 -10 -68 -3 -30 -10 -71 -15 -90 -5 -19 -12 -52 -15 -72 l-6 -38 -159 0 -159 0 -6 33 c-3 17 -10 55 -16 82 -5 28 -12 65 -15 84 -7 47 -22 73 -42 69 -14 -3 -17 -15 -15 -72 0 -37 6 -80 12 -94 6 -15 18 -67 27 -117 8 -49 17 -99 19 -110 2 -11 13 -71 24 -132 11 -62 32 -152 45 -200 13 -49 28 -106 33 -128 l9 -40 78 -3 c46 -2 83 2 91 8 14 12 54 177 80 335 9 55 25 145 36 200 31 162 59 347 53 356 -8 14 -44 11 -49 -3z m-76 -327 c11 -7 7 -45 -23 -223 -20 -118 -44 -233 -53 -256 -15 -39 -19 -42 -52 -42 l-37 0 -16 73 c-9 39 -24 104 -33 142 -32 140 -44 201 -50 258 l-7 57 128 0 c71 0 135 -4 143 -9z"/>
 <path d="M8927 5617 c-9 -7 -20 -40 -26 -82 -12 -79 -20 -130 -27 -162 -4 -23 -7 -23 -163 -23 l-160 0 -10 53 c-5 28 -12 66 -15 82 -8 53 -24 107 -35 118 -5 5 -17 7 -25 4 -20 -8 -20 -51 0 -142 8 -38 26 -126 39 -195 14 -69 30 -147 35 -175 6 -27 15 -70 20 -95 20 -101 40 -188 53 -230 l14 -45 80 -3 c57 -2 83 1 91 11 13 15 56 208 71 322 7 44 16 93 21 110 5 16 21 95 35 175 14 80 30 164 35 188 13 57 12 77 -3 91 -10 8 -18 7 -30 -2z m-81 -330 c4 -3 1 -34 -6 -69 -7 -35 -16 -90 -20 -123 -12 -91 -39 -225 -56 -275 -14 -45 -15 -45 -53 -42 l-39 4 -16 71 c-8 40 -25 113 -36 162 -27 115 -49 234 -50 261 0 21 3 22 135 19 75 -1 138 -5 141 -8z"/>
 <path d="M6632 5608 c-5 -7 -13 -24 -17 -38 -4 -14 -19 -42 -31 -62 -13 -21 -24 -40 -24 -43 0 -3 -11 -24 -26 -46 -28 -45 -57 -96 -86 -152 -11 -20 -24 -39 -28 -42 -5 -3 -15 -18 -23 -33 -27 -52 -89 -158 -121 -207 -19 -27 -37 -61 -42 -75 -6 -16 -11 109 -14 335 l-5 360 -25 0 -25 0 0 -435 c0 -397 1 -435 17 -438 17 -3 72 71 105 143 10 22 35 65 55 96 20 31 53 88 73 125 21 38 49 87 64 109 15 22 32 51 39 65 14 29 90 151 101 163 5 5 10 -150 13 -343 4 -307 7 -353 21 -367 13 -13 19 -14 31 -3 14 11 16 66 16 444 0 323 -3 435 -12 444 -16 16 -43 15 -56 0z"/>
 <path d="M1795 5598 c-3 -7 -4 -215 -3 -463 l3 -450 80 1 c80 1 175 30 175 54 0 6 6 10 13 10 18 0 70 56 98 105 20 34 23 53 22 122 -2 89 -27 160 -77 220 -45 53 -35 138 31 283 41 89 47 110 34 123 -20 20 -43 -5 -73 -83 -16 -41 -33 -84 -38 -95 -5 -11 -12 -31 -15 -45 -9 -36 -39 -100 -47 -100 -4 0 -10 5 -13 10 -3 6 -16 10 -28 10 -12 0 -35 7 -51 15 -15 8 -34 15 -42 15 -11 0 -14 30 -16 138 -3 134 -4 137 -26 140 -12 2 -24 -3 -27 -10z m176 -360 c72 -30 149 -143 149 -220 0 -18 4 -39 9 -46 27 -43 -99 -208 -166 -219 -18 -3 -36 -10 -39 -14 -3 -5 -21 -9 -40 -9 l-34 0 0 270 0 271 38 -7 c20 -3 58 -15 83 -26z"/>
 <path d="M9115 5598 c-3 -7 -4 -202 -3 -433 l3 -420 24 0 c19 0 33 17 76 90 29 50 65 113 79 141 14 28 39 71 56 95 16 24 30 48 30 52 0 5 23 41 50 81 28 40 50 77 50 83 0 6 10 22 21 37 12 15 34 51 50 79 l29 52 0 -361 c0 -318 2 -363 16 -375 11 -9 20 -10 32 -2 15 9 17 51 19 433 2 268 -1 429 -8 441 -13 24 -58 25 -65 2 -8 -29 -93 -188 -122 -231 -10 -15 -29 -47 -41 -72 -13 -25 -31 -54 -41 -65 -10 -11 -25 -33 -34 -50 -10 -16 -30 -52 -47 -80 -16 -27 -33 -59 -38 -70 -5 -11 -25 -47 -45 -80 l-36 -60 -2 360 -3 360 -23 3 c-12 2 -24 -3 -27 -10z"/>
 <path d="M2988 5575 c-9 -19 -8 -29 6 -47 9 -13 32 -45 51 -71 19 -27 40 -67 47 -90 14 -51 14 -122 0 -139 -5 -7 -33 -58 -61 -113 -45 -88 -51 -107 -51 -162 0 -35 4 -71 9 -81 6 -9 13 -30 16 -46 3 -16 28 -51 54 -79 52 -55 75 -58 87 -11 6 22 2 31 -19 46 -52 38 -101 192 -67 213 6 3 10 13 10 21 0 20 55 132 85 173 22 29 25 45 25 111 0 60 -4 83 -19 101 -10 13 -28 44 -40 67 -23 46 -97 132 -112 132 -5 0 -14 -11 -21 -25z"/>
 <path d="M3402 5588 c-19 -19 -14 -43 14 -69 50 -47 110 -199 99 -252 -4 -17 -32 -81 -63 -142 -47 -93 -55 -120 -58 -174 -3 -53 2 -73 26 -125 16 -33 42 -76 59 -95 27 -31 33 -33 56 -23 31 14 34 56 5 72 -33 18 -69 92 -76 156 -6 57 -4 62 50 169 41 79 59 129 66 173 8 61 7 66 -31 148 -39 86 -102 174 -123 174 -7 0 -17 -5 -24 -12z"/>
 <path d="M3775 5588 c-3 -7 -4 -209 -3 -448 l3 -435 30 0 30 0 0 445 0 445 -28 3 c-16 2 -29 -2 -32 -10z"/>
 <path d="M4168 5552 c-52 -55 -125 -176 -150 -247 -12 -34 -17 -81 -18 -145 0 -99 17 -162 79 -287 31 -62 133 -168 154 -160 30 11 18 46 -41 117 -87 103 -153 287 -136 379 18 91 72 196 156 301 44 55 46 59 29 74 -10 9 -20 16 -23 16 -3 0 -25 -21 -50 -48z"/>
 <path d="M7144 5582 c-76 -32 -118 -75 -169 -175 -38 -75 -48 -108 -56 -172 -22 -192 54 -406 169 -478 78 -50 219 -80 261 -58 16 9 21 20 19 39 -3 27 -4 27 -83 30 -43 1 -84 7 -89 12 -6 6 -20 10 -32 10 -20 0 -104 69 -104 85 0 3 -9 18 -20 33 -18 24 -31 61 -56 157 -10 36 -5 198 5 208 6 6 11 19 11 29 0 22 45 110 79 156 33 45 108 82 166 82 l45 0 0 -158 c0 -168 7 -198 46 -190 18 3 19 16 25 198 4 107 4 198 2 203 -8 15 -177 6 -219 -11z"/>
 <path d="M1310 5583 c-31 -12 -130 -86 -145 -109 -13 -20 -15 -77 -15 -393 0 -365 0 -370 21 -381 49 -27 49 -27 49 368 l0 368 28 27 c15 15 32 27 37 27 5 0 16 7 26 16 25 23 95 21 122 -4 12 -11 31 -23 43 -26 11 -3 30 -17 42 -29 21 -23 22 -30 24 -393 3 -366 3 -369 24 -372 44 -6 45 4 44 434 0 359 -2 411 -17 433 l-16 25 -23 -27 c-25 -29 -34 -27 -101 21 -30 22 -104 29 -143 15z"/>
 <path d="M2688 4079 c-31 -18 -20 -67 25 -116 11 -13 28 -23 37 -23 20 0 92 107 88 130 -4 18 -123 26 -150 9z"/>
 <path d="M2968 4078 c-9 -7 -37 -44 -63 -81 -35 -53 -45 -76 -43 -100 3 -29 6 -32 33 -29 27 2 34 -3 54 -38 12 -22 26 -40 30 -40 21 0 31 30 31 95 0 46 7 88 20 124 16 41 18 56 9 67 -14 17 -50 18 -71 2z"/>
 <path d="M3115 4076 c-17 -12 -20 -30 -23 -120 -4 -93 -2 -110 14 -127 28 -31 133 -92 148 -86 7 3 17 23 20 44 8 41 37 138 68 221 29 76 21 82 -106 82 -72 0 -108 -4 -121 -14z"/>
 <path d="M3436 4071 c-40 -45 -77 -297 -46 -316 6 -4 46 20 89 53 43 33 93 65 113 71 53 18 86 58 99 124 17 83 12 87 -126 87 -98 0 -114 -2 -129 -19z"/>
 <path d="M3750 4077 c-30 -15 -45 -80 -24 -98 25 -20 151 69 128 90 -17 17 -78 22 -104 8z"/>
 <path d="M4511 4076 c-7 -9 -11 -22 -8 -30 7 -18 157 -91 181 -88 11 1 36 -8 55 -22 20 -13 48 -26 62 -30 14 -3 31 -17 37 -31 13 -28 37 -32 66 -10 36 27 90 19 136 -20 23 -19 50 -35 59 -35 9 0 26 -7 37 -15 28 -21 103 -19 140 4 39 24 85 80 101 123 l11 33 1 -35 c1 -51 -29 -108 -87 -168 -48 -49 -54 -52 -100 -52 -35 0 -54 5 -66 18 -26 29 -92 48 -111 32 -19 -16 -19 -34 0 -50 9 -7 14 -24 13 -38 -2 -21 5 -30 37 -49 33 -20 50 -23 100 -20 33 3 69 8 80 12 11 3 7 -1 -10 -11 -42 -24 -161 -54 -218 -54 -49 0 -107 22 -107 41 0 6 4 19 10 29 8 15 2 24 -33 53 -24 19 -59 51 -79 71 -27 27 -45 36 -68 36 -18 0 -50 5 -71 12 -30 9 -39 16 -39 34 0 53 -102 98 -215 95 -56 -1 -84 -1 -125 2 l-35 2 -3 -49 c-3 -38 2 -56 23 -87 21 -33 31 -39 60 -39 20 0 52 -7 71 -15 23 -10 50 -13 75 -9 28 5 46 2 64 -10 14 -9 56 -19 93 -23 73 -6 92 -15 92 -44 0 -10 9 -24 21 -33 18 -12 20 -22 16 -68 -3 -29 -6 -62 -8 -73 -3 -14 5 -24 28 -35 19 -9 38 -30 50 -54 10 -22 27 -44 38 -50 11 -6 35 -23 53 -38 38 -32 75 -35 167 -14 54 13 58 13 40 -1 -40 -30 -91 -46 -171 -51 l-81 -5 -40 37 c-61 55 -92 45 -89 -28 1 -28 8 -43 21 -50 11 -6 40 -23 64 -38 34 -21 58 -28 100 -29 l56 -1 -45 -15 c-56 -19 -139 -20 -181 -2 -18 7 -52 32 -76 55 -37 35 -44 48 -46 83 -1 30 4 44 18 55 17 12 18 17 6 54 -9 26 -12 60 -8 94 7 52 6 54 -31 83 -44 35 -126 75 -154 75 -11 0 -33 11 -48 24 -66 55 -260 33 -260 -31 0 -7 -9 -13 -19 -13 -21 0 -54 40 -66 80 -8 29 -34 60 -48 60 -5 0 -29 -18 -53 -40 -24 -22 -48 -40 -54 -40 -5 0 -17 -17 -27 -37 -12 -29 -16 -64 -15 -143 2 -126 9 -138 67 -114 29 12 37 13 29 2 -6 -7 -25 -32 -42 -55 -29 -37 -32 -46 -26 -85 13 -83 60 -148 109 -148 42 0 49 -15 50 -96 0 -62 3 -79 18 -88 30 -19 51 5 61 70 12 77 13 199 3 249 -9 39 -8 39 36 -29 48 -71 51 -82 67 -236 8 -73 15 -100 31 -115 l20 -20 15 20 c31 40 74 135 74 162 0 15 -10 44 -21 63 -31 50 -99 187 -99 197 1 4 8 -5 17 -22 21 -39 102 -145 111 -145 4 0 13 -23 19 -50 14 -58 76 -194 93 -205 35 -21 32 40 -7 175 -15 51 31 -52 60 -135 66 -188 90 -226 123 -193 8 8 18 39 21 69 l7 54 12 -75 c7 -41 13 -94 13 -118 1 -47 24 -112 40 -112 6 0 16 10 23 23 7 12 20 22 28 22 12 0 16 19 20 90 l5 90 13 -53 c6 -29 12 -59 12 -66 0 -7 6 -21 14 -31 23 -31 40 -5 87 127 39 110 48 127 98 178 31 31 90 76 131 100 41 24 118 69 170 100 52 31 162 89 245 130 142 70 154 78 255 175 266 258 312 292 432 316 57 11 299 3 333 -10 11 -5 32 -13 48 -20 67 -27 2 -95 -129 -134 -54 -16 -180 -81 -249 -128 -22 -15 -124 -111 -227 -213 -160 -158 -193 -196 -225 -258 -38 -74 -62 -145 -63 -185 0 -13 -9 -32 -19 -42 -24 -24 -38 -88 -24 -110 6 -9 26 -17 46 -19 30 -3 39 2 58 27 23 31 43 39 54 21 3 -5 -3 -31 -14 -57 -11 -26 -25 -67 -31 -89 -15 -59 -116 -157 -190 -184 -75 -27 -85 -34 -85 -56 0 -16 8 -19 50 -19 40 0 64 -8 119 -39 l69 -39 51 16 c28 8 71 23 95 32 36 13 53 14 93 5 83 -17 95 -14 153 41 39 37 73 58 120 74 36 13 84 34 107 48 69 40 184 86 272 108 44 11 112 31 150 45 76 27 216 36 254 15 31 -16 42 -14 52 14 11 29 19 31 46 11 21 -16 44 -5 44 20 0 21 33 17 48 -6 16 -27 30 -25 44 5 8 18 17 24 27 19 40 -16 51 -16 58 2 4 11 19 31 35 46 16 15 28 37 28 51 0 32 23 51 54 43 21 -5 48 -40 101 -127 71 -118 75 -126 75 -170 0 -58 -55 -170 -117 -239 -24 -27 -43 -51 -43 -54 0 -4 -18 -31 -40 -61 -22 -30 -40 -59 -40 -64 0 -11 -93 -76 -150 -106 -142 -73 -190 -95 -203 -95 -8 0 -39 -19 -69 -42 -91 -73 -188 -135 -383 -246 -43 -25 -114 -78 -157 -118 -42 -40 -87 -76 -100 -79 -13 -4 -42 -24 -64 -44 -23 -20 -60 -51 -83 -69 -23 -18 -50 -51 -61 -72 -24 -48 -48 -61 -119 -69 l-55 -6 -11 -69 c-14 -83 -38 -103 -129 -105 -35 -1 -47 -8 -97 -61 -53 -56 -60 -60 -101 -60 -38 0 -49 5 -83 40 -21 22 -47 40 -56 40 -10 0 -21 5 -24 10 -3 6 -28 10 -54 10 -55 0 -119 20 -161 50 -16 12 -44 20 -67 20 -45 0 -114 20 -171 49 -81 41 -162 53 -190 28 -9 -8 -42 -22 -72 -31 -30 -9 -68 -25 -85 -36 -39 -26 -45 -25 -45 4 0 14 17 40 45 68 37 38 45 52 45 83 0 20 8 50 17 66 17 28 17 30 -2 49 -20 19 -20 19 -70 -5 -28 -13 -79 -45 -115 -71 -55 -39 -70 -45 -99 -40 -69 11 -110 66 -58 80 40 10 107 68 107 94 0 14 12 34 30 49 37 30 37 43 5 73 -24 22 -28 23 -93 13 -68 -11 -112 -27 -168 -63 -42 -27 -102 -31 -117 -8 -10 15 -4 26 35 65 36 37 48 58 53 93 4 25 16 61 26 81 18 37 18 37 -6 63 -13 14 -29 26 -35 26 -6 0 -42 -16 -80 -35 -77 -39 -130 -46 -130 -17 0 9 19 40 43 67 60 71 93 140 77 160 -18 21 -34 19 -68 -10 -27 -23 -52 -32 -52 -20 0 3 14 27 30 53 17 27 30 56 30 65 0 9 5 19 10 22 26 16 -4 75 -32 61 -7 -3 -35 -22 -62 -41 -83 -60 -98 -42 -41 52 41 68 43 92 11 129 l-23 28 -40 -42 c-68 -71 -99 -51 -64 43 28 74 26 112 -7 159 -45 66 -57 68 -103 18 -23 -24 -44 -41 -47 -37 -3 3 8 35 26 71 37 75 40 99 12 114 -18 9 -26 6 -53 -22 -18 -18 -40 -44 -49 -58 -17 -24 -17 -24 -12 41 7 68 -5 109 -30 109 -17 0 -46 -34 -86 -102 -36 -61 -50 -65 -50 -15 0 47 -16 95 -46 139 -33 47 -59 47 -86 0 -22 -40 -111 -132 -127 -132 -7 0 -11 22 -11 61 0 76 -17 143 -41 165 -19 17 -21 16 -62 -23 -23 -22 -56 -45 -74 -52 -17 -7 -41 -23 -54 -37 -12 -13 -31 -24 -41 -24 -20 0 -22 12 -18 117 2 56 0 63 -25 79 -25 16 -27 16 -53 -3 -15 -11 -36 -37 -48 -59 -25 -47 -62 -68 -97 -55 -35 14 -40 25 -38 99 1 59 -2 69 -26 94 -28 30 -57 36 -70 16 -4 -7 -10 -33 -13 -58 l-5 -45 -56 1 c-72 1 -148 30 -159 60 -6 14 -5 47 2 82 6 33 8 67 5 76 -4 9 -37 31 -73 48 -78 37 -96 32 -104 -29 -4 -26 -19 -55 -45 -86 -40 -48 -60 -56 -97 -36 -35 19 -42 -2 -23 -67 33 -114 128 -341 220 -529 119 -240 198 -362 372 -575 181 -222 423 -444 668 -615 111 -77 360 -223 457 -268 127 -59 140 -65 263 -110 326 -121 645 -183 1000 -194 637 -20 1241 137 1745 452 233 146 255 161 415 291 266 216 532 518 697 794 268 447 429 909 482 1385 31 278 28 628 -5 660 -11 10 -381 14 -1930 20 -1729 6 -1917 5 -1928 -9z m2298 -601 c28 -74 26 -78 -9 -25 -30 44 -39 80 -21 80 5 0 19 -25 30 -55z m-73 -61 c14 -31 23 -58 21 -60 -6 -6 -67 86 -67 101 0 32 22 12 46 -41z m-76 -16 c25 -27 55 -92 65 -139 l7 -34 -18 25 c-10 14 -42 51 -71 83 -29 32 -53 65 -53 73 0 22 47 17 70 -8z m-124 -35 c36 -49 36 -53 7 -38 -16 8 -40 18 -55 24 -37 14 -37 41 0 41 19 0 35 -9 48 -27z m-124 -103 c41 -83 35 -101 -12 -39 -22 30 -40 64 -40 77 0 38 22 21 52 -38z m101 10 c14 -16 35 -54 46 -84 41 -110 34 -113 -33 -12 -36 54 -66 105 -66 112 0 24 27 16 53 -16z m-173 -50 c46 -91 45 -96 -15 -45 -30 26 -55 49 -55 50 0 2 3 10 6 19 11 30 43 18 64 -24z m-76 -85 c30 -63 20 -74 -26 -28 -35 35 -39 44 -29 57 17 21 37 11 55 -29z m-117 -67 c6 -7 13 -22 17 -33 6 -17 4 -17 -18 4 -15 14 -26 28 -26 33 0 12 16 10 27 -4z m-46 -90 c62 -86 61 -99 -2 -38 -35 33 -59 63 -55 69 12 19 25 12 57 -31z m-96 -78 c27 -30 11 -35 -21 -6 -21 18 -24 25 -13 26 9 0 24 -9 34 -20z m-45 -80 c10 -19 10 -20 -9 -8 -22 13 -28 28 -11 28 5 0 14 -9 20 -20z m1493 -20 c31 -19 47 -37 47 -50 0 -33 -25 -23 -69 30 -23 28 -38 50 -34 50 5 0 30 -13 56 -30z m-384 -84 c39 -84 45 -115 26 -122 -22 -9 -25 -3 -41 73 -8 37 -24 86 -35 108 l-21 40 21 -19 c12 -11 34 -47 50 -80z m167 21 c39 -43 60 -95 46 -109 -22 -22 -49 4 -88 86 -39 84 -39 84 -13 70 14 -7 39 -28 55 -47z m129 -59 c14 -54 -20 -29 -54 40 l-33 67 41 -40 c22 -22 43 -52 46 -67z m-225 21 c17 -28 29 -56 27 -62 -2 -6 -18 17 -35 51 -17 34 -30 62 -28 62 2 0 18 -23 36 -51z m-160 6 c12 -19 20 -41 18 -49 -2 -8 -13 8 -25 35 -26 58 -23 63 7 14z m461 -17 c17 -32 -6 -19 -26 15 -17 28 -17 30 -1 18 9 -8 22 -23 27 -33z m-594 -90 c28 -41 28 -44 -2 -50 -16 -2 -28 13 -64 82 l-44 85 42 -40 c23 -21 53 -56 68 -77z m133 -19 c0 -13 -39 -17 -48 -5 -6 6 -24 40 -41 76 l-32 65 60 -65 c33 -36 60 -68 61 -71z m-230 -38 c0 -16 -6 -21 -25 -21 -21 0 -30 11 -60 76 -19 42 -35 80 -35 83 1 17 120 -120 120 -138z m-134 12 c25 -50 27 -83 5 -83 -6 0 -15 19 -22 42 -6 23 -22 64 -35 92 -13 27 -24 52 -24 55 0 14 52 -59 76 -106z m-102 -33 c25 -38 34 -70 19 -70 -7 0 -54 110 -48 110 1 0 14 -18 29 -40z m-34 -102 c0 -20 -18 -5 -23 19 -5 26 -4 26 9 8 8 -10 14 -22 14 -27z"/>
 <path d="M3900 3941 c-5 -11 -10 -49 -10 -84 0 -104 39 -114 90 -24 l29 50 -42 38 c-49 44 -53 45 -67 20z"/>
 <path d="M3780 3844 c-25 -19 -58 -45 -74 -57 -28 -22 -29 -26 -30 -111 -1 -52 3 -90 9 -92 6 -2 45 29 87 69 l77 72 3 75 c4 90 -6 95 -72 44z"/>
 <path d="M3575 3656 c-30 -13 -95 -78 -95 -96 0 -10 80 -80 92 -80 28 0 66 168 42 183 -5 3 -23 0 -39 -7z"/>
 <path d="M3729 3401 c-38 -38 -75 -71 -81 -73 -11 -4 -13 -11 -25 -69 -7 -37 14 -46 43 -18 22 21 21 15 -12 -48 -32 -62 -36 -74 -24 -88 12 -14 21 -8 87 57 40 40 73 80 73 89 0 10 7 16 18 15 15 -1 18 12 24 94 3 52 4 98 2 102 -12 20 -41 3 -105 -61z"/>
 <path d="M3811 3116 c-8 -9 -11 -44 -9 -97 2 -69 6 -84 20 -87 11 -2 23 8 33 28 14 26 14 39 4 90 -13 66 -29 89 -48 66z"/>
 <path d="M3730 3040 c-25 -35 -23 -65 5 -65 27 0 61 60 45 80 -18 21 -26 19 -50 -15z"/>
 <path d="M4413 2885 c-3 -9 -2 -33 2 -53 4 -20 10 -55 13 -77 5 -26 12 -40 22 -40 22 0 26 114 5 155 -17 33 -32 38 -42 15z"/>
 <path d="M6766 2160 c-89 -35 -106 -67 -58 -112 42 -40 66 -48 134 -48 53 0 70 5 98 25 65 48 87 106 52 138 -27 24 -161 22 -226 -3z"/>
 <path d="M6485 2095 c-26 -12 -135 -124 -135 -139 0 -3 -20 -24 -45 -47 -25 -23 -45 -48 -45 -57 0 -8 18 -34 40 -58 47 -51 50 -79 16 -138 -15 -27 -25 -65 -30 -112 -5 -63 -3 -75 15 -98 44 -56 107 -24 180 92 23 37 88 114 145 172 94 96 104 110 110 151 8 58 -7 88 -78 156 -44 41 -127 96 -140 92 -2 0 -16 -7 -33 -14z"/>
 <path d="M5835 1746 c-61 -61 -65 -83 -25 -142 18 -25 46 -54 62 -63 66 -36 79 -51 73 -82 -4 -16 -22 -52 -40 -80 -57 -83 -56 -153 2 -199 59 -46 123 -33 164 33 32 53 72 197 72 262 0 66 -5 78 -86 195 -91 131 -148 150 -222 76z"/>
 </g>
<g id="layer4" fill="#020101" stroke="none">
 <path d="M4865 7248 c-225 -18 -545 -87 -790 -171 -489 -168 -827 -370 -1272 -762 l-62 -54 -1138 -1 c-668 0 -1141 -4 -1146 -9 -5 -5 -11 -112 -12 -238 -5 -471 -6 -1945 -1 -1951 3 -2 290 -4 638 -3 l633 2 1 -268 c1 -370 35 -635 124 -954 123 -445 362 -925 614 -1234 295 -363 638 -659 1021 -880 356 -206 807 -354 1250 -411 214 -28 668 -25 865 5 334 50 625 130 880 241 221 95 516 270 725 428 418 317 769 738 997 1195 130 261 213 478 277 727 82 317 118 643 108 963 l-7 187 637 0 c350 0 640 3 644 7 4 5 9 493 10 1086 1 827 -1 1081 -10 1090 -9 9 -283 13 -1152 15 l-1141 3 -106 92 c-223 192 -330 273 -522 394 -361 227 -783 386 -1240 467 -253 44 -548 57 -825 34z m685 -418 c0 -5 -2 -10 -4 -10 -3 0 -8 5 -11 10 -3 6 -1 10 4 10 6 0 11 -4 11 -10z m150 -18 c0 -12 -22 -32 -36 -32 -6 0 -14 9 -17 20 -4 17 0 20 24 20 16 0 29 -4 29 -8z m-112 -47 c17 -37 15 -45 -12 -45 -30 0 -54 25 -31 34 8 3 15 12 15 21 0 23 16 18 28 -10z m-1533 3 c44 -20 29 -68 -22 -68 -13 0 -13 3 -3 16 11 13 10 16 -8 21 -21 5 -29 23 -15 36 9 10 18 9 48 -5z m493 0 c7 -7 12 -22 12 -35 0 -23 -1 -23 -25 -7 -14 9 -25 25 -25 35 0 21 20 25 38 7z m-94 -13 c16 -42 -48 -101 -80 -74 -22 18 -30 -18 -9 -41 27 -30 11 -35 -29 -11 -37 23 -52 16 -41 -20 7 -20 -9 -49 -26 -49 -5 0 -9 9 -9 20 0 10 -8 23 -17 29 -14 7 -15 12 -4 25 7 8 10 20 6 26 -9 14 -32 13 -42 -2 -4 -7 -18 -19 -30 -26 -23 -12 -23 -11 -23 38 0 46 2 50 23 50 13 0 28 5 34 11 9 9 18 8 35 -3 37 -24 79 -28 86 -9 9 24 24 31 45 20 23 -13 47 -5 47 16 0 19 26 20 34 0z m1346 8 c-1 -21 -21 -35 -50 -37 -18 -1 -38 -9 -46 -20 -17 -23 -33 -12 -18 12 21 33 114 70 114 45z m-788 -25 c-6 -6 -15 -8 -19 -4 -4 4 -1 11 7 16 19 12 27 3 12 -12z m-1062 -13 c0 -27 -7 -30 -30 -15 -13 9 -12 12 4 25 26 19 26 19 26 -10z m2006 -26 c40 -24 45 -44 10 -35 -34 8 -44 -13 -17 -35 21 -17 21 -20 7 -41 -21 -29 -21 -121 -1 -138 8 -6 22 -9 32 -6 14 4 23 -5 38 -37 12 -26 28 -43 40 -45 26 -4 130 51 130 68 0 8 -19 20 -42 28 -58 19 -54 30 7 24 36 -3 57 0 76 13 25 16 25 17 8 36 -10 11 -25 17 -36 14 -10 -3 -27 -8 -38 -11 -11 -3 -20 -1 -20 4 0 5 19 12 43 15 72 10 97 23 97 52 0 18 -7 28 -25 35 -14 5 -25 13 -25 18 0 15 25 62 33 62 19 0 48 -22 44 -34 -6 -16 19 -76 32 -76 6 0 14 6 18 13 4 6 15 12 23 12 10 0 16 12 18 38 4 43 22 51 22 8 0 -30 36 -92 58 -99 7 -2 16 5 19 17 l5 21 30 -21 c22 -16 32 -19 41 -10 6 6 23 11 37 11 40 0 43 11 13 43 -23 25 -24 29 -8 23 11 -5 44 -17 74 -27 30 -11 75 -31 100 -46 128 -74 391 -264 441 -317 l25 -27 -2105 5 c-1158 3 -2106 5 -2108 5 -31 6 434 342 495 357 29 8 43 -8 36 -37 -6 -21 14 -52 27 -44 5 3 18 -11 30 -30 25 -41 44 -41 48 -2 l3 27 60 -52 c68 -59 96 -57 55 5 -17 24 -21 39 -14 43 7 5 5 12 -7 20 -31 23 -11 25 34 3 47 -22 74 -19 69 8 -4 25 38 29 64 6 19 -17 20 -17 37 4 10 11 26 23 37 25 10 2 19 10 19 18 1 19 14 40 26 40 17 0 10 -82 -8 -96 -15 -11 -16 -16 -5 -33 16 -28 15 -30 -8 -24 -11 3 -20 11 -20 19 0 22 -21 27 -38 10 -16 -16 -16 -19 4 -55 19 -34 19 -39 5 -48 -14 -9 -14 -13 4 -32 13 -16 26 -20 42 -16 18 4 25 0 32 -18 13 -34 39 -53 54 -38 9 9 8 17 -2 34 -9 15 -2 11 22 -12 33 -32 67 -37 67 -12 0 6 7 8 15 5 8 -4 22 -3 31 0 13 5 14 9 4 21 -19 23 5 45 47 45 25 0 36 5 40 18 2 9 21 25 41 35 35 18 36 18 53 -4 9 -12 21 -19 27 -15 7 4 25 -3 41 -15 27 -20 58 -19 46 2 -8 12 9 11 21 -1 7 -7 19 -8 35 -1 13 5 32 12 43 15 15 5 16 9 6 21 -10 12 -9 15 8 15 28 0 39 20 19 35 -14 10 -12 12 15 12 20 0 37 7 49 21 20 25 57 29 65 7 4 -8 1 -22 -6 -30 -10 -12 -10 -18 1 -31 11 -13 8 -19 -15 -37 -23 -18 -26 -27 -21 -50 4 -15 12 -30 17 -33 11 -7 48 24 48 40 0 6 10 27 21 45 l21 35 14 -32 c7 -18 20 -35 29 -38 9 -4 23 -20 31 -36 15 -30 41 -34 36 -6 -1 9 7 18 18 21 12 3 20 13 20 26 0 12 2 21 4 21 2 0 20 -16 40 -35 21 -19 42 -32 48 -29 14 9 2 60 -22 94 -26 36 -25 42 3 39 37 -5 51 10 31 32 -15 17 -15 19 0 25 9 3 28 -1 42 -11 18 -12 29 -13 38 -6 10 8 18 6 31 -9 10 -11 28 -20 39 -20 12 0 34 -9 51 -20 22 -14 32 -16 42 -8 11 9 10 14 -3 29 -16 18 -16 19 9 19 28 0 44 15 27 25 -15 9 -12 25 5 25 8 0 15 -7 15 -15 0 -9 11 -21 25 -27 18 -8 22 -15 15 -23 -12 -15 -3 -25 22 -25 11 0 17 -4 14 -9 -11 -16 25 -100 50 -116 21 -13 25 -14 30 -1 5 12 10 12 41 0 36 -15 69 -12 58 5 -3 6 16 7 48 4 61 -6 79 7 53 36 -16 17 -16 19 -1 25 9 3 29 6 44 6 28 0 67 31 54 43 -3 4 -20 7 -37 7 l-31 1 39 19 c44 22 66 39 66 51 0 5 -22 19 -50 31 -60 28 -66 53 -16 73 18 8 36 21 39 30 8 20 13 19 53 -6z m-1122 -16 c-8 -35 -10 -37 -23 -28 -6 3 -11 17 -11 31 0 17 5 24 20 24 17 0 19 -4 14 -27z m336 17 c0 -5 -4 -10 -10 -10 -5 0 -10 5 -10 10 0 6 5 10 10 10 6 0 10 -4 10 -10z m-1343 -16 c2 -6 -6 -14 -19 -17 -27 -7 -30 -5 -22 17 7 18 35 18 41 0z m1223 -6 c0 -15 -49 -40 -61 -32 -16 10 -9 22 19 32 37 14 42 14 42 0z m-440 -13 c0 -9 -6 -12 -15 -9 -8 4 -12 10 -9 15 8 14 24 10 24 -6z m80 0 c-12 -15 -30 -12 -30 6 0 5 10 9 21 9 18 0 19 -2 9 -15z m930 -14 c0 -3 -9 -12 -20 -19 -11 -7 -20 -19 -20 -28 0 -11 -5 -14 -16 -10 -9 3 -20 6 -25 6 -13 0 -11 18 6 44 12 17 22 22 45 18 17 -2 30 -7 30 -11z m150 -1 c0 -13 -7 -20 -20 -20 -22 0 -23 1 -14 24 9 23 34 20 34 -4z m-312 -2 c-5 -15 -48 -24 -48 -10 0 14 12 22 33 22 10 0 17 -5 15 -12z m650 0 c-7 -20 -48 -23 -48 -4 0 11 9 16 26 16 16 0 24 -5 22 -12z m-2174 -7 c7 -11 -36 -20 -69 -13 -37 7 -20 22 25 22 21 0 41 -4 44 -9z m814 -3 c19 -19 14 -37 -13 -44 -33 -8 -38 -3 -26 30 12 29 21 32 39 14z m422 -8 c0 -13 -11 -13 -30 0 -12 8 -11 10 8 10 12 0 22 -4 22 -10z m1040 -24 c0 -2 -7 -7 -16 -10 -8 -3 -12 -2 -9 4 6 10 25 14 25 6z m-1600 -51 c0 -8 -4 -15 -8 -15 -13 0 -32 23 -32 37 0 11 5 11 20 3 11 -6 20 -17 20 -25z m-396 -3 c2 -4 -2 -15 -9 -25 -11 -16 -13 -16 -19 -1 -3 8 -6 20 -6 25 0 11 27 12 34 1z m180 -10 c2 -4 -4 -19 -14 -32 -18 -24 -19 -24 -39 -6 -16 15 -18 22 -10 33 12 14 55 18 63 5z m1196 -38 c0 -8 -4 -12 -10 -9 -5 3 -10 10 -10 16 0 5 5 9 10 9 6 0 10 -7 10 -16z m490 -95 c0 -6 -4 -7 -10 -4 -5 3 -10 11 -10 16 0 6 5 7 10 4 6 -3 10 -11 10 -16z m-5176 -664 c36 -24 60 -49 76 -82 23 -45 25 -60 28 -238 2 -104 6 -197 9 -205 3 -8 8 -154 9 -324 4 -317 2 -336 -35 -336 -9 0 -28 -6 -42 -14 -14 -7 -54 -16 -89 -20 -35 -4 -73 -12 -83 -18 -19 -10 -19 -4 -12 204 21 630 21 738 2 780 l-18 39 -92 -3 -92 -3 1 109 c1 121 4 126 71 126 23 0 45 5 48 10 3 6 42 10 86 10 75 0 84 -2 133 -35z m3919 8 c6 -32 -1 -83 -15 -100 -9 -12 -4 -131 8 -171 3 -12 2 -28 -4 -35 -6 -7 -9 -22 -6 -34 3 -11 1 -24 -5 -27 -15 -10 -14 -99 1 -114 8 -8 58 -12 159 -12 124 0 149 3 160 17 18 21 24 198 10 290 -6 37 -8 101 -4 141 l6 72 138 0 139 0 -7 -32 c-3 -18 -10 -37 -14 -42 -13 -14 -11 -101 3 -131 10 -21 9 -31 -3 -48 -11 -18 -15 -87 -17 -366 -2 -206 1 -377 7 -423 6 -44 8 -112 4 -153 l-6 -75 -121 0 -121 0 1 250 c0 168 -3 253 -10 258 -6 4 -78 5 -161 2 l-150 -5 -1 -115 c-1 -63 -2 -177 -3 -252 l-1 -138 -125 0 -125 0 1 190 c0 108 4 192 10 195 13 9 12 302 -2 311 -8 4 -10 32 -7 83 6 87 -7 423 -17 464 l-7 27 140 0 140 0 5 -27z m-1735 -97 c12 -11 22 -25 22 -33 0 -7 9 -18 20 -25 11 -7 20 -17 20 -21 0 -5 10 -22 21 -39 90 -125 108 -255 48 -339 -10 -15 -28 -46 -40 -70 -11 -24 -29 -61 -40 -81 -11 -21 -21 -58 -22 -82 -2 -54 33 -109 108 -171 l50 -40 -45 -45 c-25 -24 -53 -48 -62 -52 -10 -4 -18 -12 -18 -18 0 -6 -4 -9 -9 -5 -5 3 -12 1 -16 -5 -15 -24 -101 10 -93 37 2 5 -18 33 -43 63 -57 68 -86 129 -94 200 -7 58 7 94 79 208 15 24 30 51 33 60 4 9 15 30 26 45 15 22 18 37 12 65 -3 20 -8 44 -9 52 -6 29 -26 70 -35 70 -5 0 -26 23 -47 50 -21 28 -46 50 -56 50 -21 0 -38 -29 -38 -64 0 -14 -5 -28 -11 -31 -6 -4 -8 -14 -5 -22 4 -9 1 -22 -5 -29 -6 -8 -9 -27 -6 -44 4 -16 2 -32 -4 -36 -6 -3 -9 -16 -7 -29 1 -12 -3 -30 -11 -38 -7 -9 -10 -24 -7 -33 4 -9 1 -23 -5 -30 -6 -8 -8 -25 -5 -38 3 -14 2 -28 -4 -31 -5 -3 -10 -21 -10 -40 0 -19 -4 -36 -10 -40 -5 -3 -9 -18 -9 -33 0 -24 -25 -190 -31 -202 -1 -3 -3 -18 -4 -35 -1 -16 -6 -45 -10 -62 l-8 -33 -138 0 c-152 0 -150 -1 -150 65 0 19 -4 36 -9 39 -5 4 -12 40 -16 81 -4 42 -11 78 -16 80 -4 3 -5 13 -2 21 3 8 1 25 -5 37 -12 26 -23 81 -22 119 0 15 -5 30 -10 33 -6 4 -8 16 -5 26 4 11 2 25 -3 32 -9 12 -18 50 -27 117 -5 36 -10 66 -21 133 -3 20 -10 40 -15 42 -4 3 -6 19 -2 35 4 22 1 31 -11 36 -19 7 -36 -5 -40 -27 -2 -8 -9 -27 -16 -44 -7 -16 -14 -32 -15 -35 -4 -11 -17 -47 -30 -80 -8 -19 -17 -57 -21 -83 -6 -45 -4 -51 24 -80 17 -18 43 -55 58 -82 24 -43 28 -63 29 -145 2 -79 -1 -100 -16 -122 -11 -14 -19 -31 -19 -36 0 -18 -123 -132 -164 -153 -36 -17 -57 -19 -171 -17 l-129 3 1 112 c1 62 -3 115 -8 118 -5 4 -9 168 -9 396 l0 389 95 0 c104 0 96 6 100 -70 0 -19 -3 -40 -8 -47 -5 -7 -6 -17 -3 -22 4 -5 2 -12 -4 -16 -16 -10 -11 -58 10 -92 11 -18 23 -33 28 -33 12 0 47 27 48 37 1 14 15 46 66 150 55 113 55 113 132 77 20 -10 33 -11 42 -4 7 6 48 10 96 8 l83 -3 8 -50 c5 -27 13 -58 18 -67 5 -10 9 -31 9 -47 0 -46 30 -61 122 -61 78 0 78 0 98 33 11 17 20 44 20 58 0 14 5 51 11 82 l12 57 92 0 c83 0 93 -2 98 -19 6 -24 43 -18 60 10 7 11 17 19 23 19 6 0 17 7 24 15 13 16 34 8 78 -29z m442 -51 c28 -35 50 -68 50 -73 0 -6 6 -15 13 -19 20 -13 56 -96 67 -152 11 -61 -2 -134 -30 -166 -10 -11 -21 -31 -25 -45 -4 -14 -21 -44 -37 -67 -16 -24 -26 -43 -22 -43 3 0 2 -6 -3 -12 -9 -11 -11 -55 -5 -121 2 -22 90 -117 107 -117 25 0 26 -33 2 -59 -14 -14 -30 -36 -36 -48 -6 -13 -20 -23 -30 -23 -10 0 -26 -9 -36 -20 -10 -11 -28 -20 -39 -20 -26 1 -66 33 -66 54 0 8 -11 23 -25 32 -14 9 -25 23 -25 32 0 9 -11 27 -23 41 -30 33 -56 104 -62 167 -5 43 -1 57 30 109 19 33 42 76 51 95 9 19 29 53 45 77 30 43 37 81 18 100 -5 5 -12 27 -14 48 -2 28 -11 44 -33 62 -17 13 -40 39 -52 58 -12 19 -29 35 -37 35 -17 0 -42 28 -43 48 0 6 5 12 11 12 6 0 33 18 59 40 26 22 52 40 58 40 5 0 15 7 22 15 17 21 48 -2 110 -80z m4135 58 c4 -21 10 -47 15 -58 5 -11 13 -56 20 -100 6 -44 15 -89 20 -100 5 -11 13 -42 18 -70 6 -40 11 -50 27 -50 16 0 22 12 33 60 7 32 17 64 21 70 5 5 12 29 16 53 l7 42 88 0 c95 0 101 -3 107 -54 2 -17 8 -35 13 -40 6 -6 10 -18 10 -27 0 -10 5 -30 12 -46 6 -15 10 -35 9 -45 -1 -9 3 -19 9 -23 18 -11 42 17 37 42 -2 13 0 26 4 29 5 3 9 18 9 34 0 16 5 32 11 36 6 3 8 17 4 31 -3 14 -1 31 6 39 6 7 8 21 5 30 -4 9 -1 23 5 30 6 8 9 23 6 34 -3 10 2 25 10 31 8 7 12 21 9 32 -6 25 14 59 29 47 11 -9 117 -21 253 -27 82 -4 92 -6 92 -23 0 -10 5 -22 11 -25 6 -4 7 -19 4 -36 -4 -19 -2 -36 6 -46 8 -8 12 -28 11 -42 -5 -48 24 -62 119 -59 l84 3 17 35 c10 20 17 54 16 80 -1 25 2 59 6 76 l7 31 136 6 c75 4 161 7 192 7 l56 0 -1 -125 c-1 -79 -6 -130 -13 -139 -8 -10 -11 -54 -10 -133 3 -150 18 -176 55 -95 10 20 27 47 38 60 12 13 20 24 18 25 -5 3 32 79 59 122 32 49 53 89 74 135 8 19 22 49 30 65 8 17 17 42 21 58 l6 27 109 0 108 0 -15 -42 c-10 -29 -15 -75 -14 -138 1 -52 -1 -151 -5 -220 -4 -69 -3 -190 3 -270 5 -80 7 -189 5 -242 l-5 -98 -83 0 -82 0 -7 108 c-3 59 -9 180 -12 270 -4 89 -10 165 -14 167 -11 7 -60 -34 -60 -49 0 -17 -59 -134 -71 -142 -8 -5 -29 -44 -34 -64 0 -3 -7 -16 -14 -28 -7 -13 -10 -26 -7 -29 2 -3 -8 -23 -24 -45 -17 -22 -27 -45 -24 -50 3 -5 0 -15 -6 -23 -6 -8 -9 -19 -6 -24 4 -5 1 -13 -5 -16 -5 -4 -8 -14 -4 -22 3 -9 -2 -24 -11 -34 -14 -16 -32 -19 -107 -19 l-90 0 7 108 c10 181 9 723 -2 734 -23 23 -38 -1 -50 -76 -6 -41 -9 -82 -6 -91 4 -9 0 -23 -9 -33 -8 -9 -13 -26 -11 -37 1 -10 -2 -25 -8 -32 -6 -7 -8 -22 -5 -33 3 -11 1 -23 -5 -26 -5 -3 -8 -16 -6 -29 1 -12 -3 -29 -10 -38 -10 -11 -11 -21 -3 -35 7 -14 6 -25 -5 -41 -9 -12 -14 -31 -11 -42 3 -10 1 -22 -5 -25 -5 -4 -7 -21 -4 -39 4 -20 2 -36 -4 -40 -6 -4 -10 -19 -8 -35 1 -15 -3 -34 -10 -42 -7 -9 -12 -31 -11 -49 0 -19 -3 -49 -7 -66 l-6 -33 -137 0 c-130 0 -137 1 -151 23 -7 12 -13 34 -11 49 1 14 -3 29 -8 33 -6 3 -8 17 -5 31 3 13 3 32 -1 41 -5 10 -9 32 -11 48 -6 59 -12 94 -19 106 -8 12 -16 67 -15 108 0 13 -5 30 -11 37 -6 7 -8 22 -5 32 4 11 0 24 -8 31 -8 7 -12 19 -9 27 3 8 2 22 -3 32 -8 17 -15 67 -15 112 -1 14 -5 31 -11 37 -6 7 -12 36 -14 65 -3 29 -8 56 -13 61 -12 12 -34 -21 -36 -56 -1 -18 -5 -40 -10 -49 -4 -10 -5 -25 -2 -33 4 -8 2 -17 -3 -20 -6 -4 -10 -19 -10 -35 0 -16 -5 -32 -11 -36 -6 -3 -9 -19 -5 -35 3 -15 1 -31 -5 -35 -6 -3 -9 -18 -8 -32 1 -15 -2 -35 -6 -45 -4 -9 -4 -28 -1 -41 4 -15 0 -28 -10 -36 -10 -9 -13 -22 -9 -41 4 -16 1 -30 -5 -34 -6 -4 -10 -21 -9 -39 2 -17 0 -37 -4 -43 -4 -7 -7 -28 -5 -47 1 -19 -3 -40 -10 -48 -6 -8 -14 -50 -18 -94 l-7 -79 -95 -2 c-107 -3 -122 3 -122 53 0 18 -4 35 -9 38 -5 3 -7 15 -4 26 3 11 0 26 -6 34 -6 7 -9 20 -5 29 3 8 1 18 -5 22 -6 3 -11 19 -11 34 0 15 -3 31 -6 34 -4 4 -8 23 -10 43 -2 21 -8 42 -13 47 -12 12 -44 1 -36 -13 4 -6 1 -17 -5 -25 -7 -8 -10 -21 -7 -29 3 -8 -1 -20 -9 -27 -10 -8 -12 -15 -5 -22 7 -7 7 -16 -3 -26 -7 -9 -18 -50 -25 -91 -20 -128 -31 -140 -121 -139 -73 1 -82 8 -101 85 -10 38 -18 80 -19 94 0 14 -7 33 -14 43 -10 13 -12 27 -6 47 6 21 4 32 -5 40 -9 7 -12 22 -9 40 4 15 1 30 -4 34 -6 3 -8 21 -5 40 3 19 1 36 -6 40 -6 4 -11 22 -11 41 0 19 -4 36 -9 39 -4 3 -6 17 -3 31 2 14 -1 32 -8 40 -7 8 -9 22 -6 31 4 9 1 23 -5 30 -11 13 -19 62 -19 116 0 15 -4 30 -10 33 -6 4 -8 10 -5 15 4 7 1 28 -24 142 -9 40 3 53 46 49 11 -1 24 2 27 7 3 6 23 8 45 5 23 -3 41 -1 45 6 13 21 25 11 31 -26z m-3405 5 c19 -9 49 -31 65 -48 17 -18 41 -36 55 -42 25 -9 25 -10 5 -25 -11 -8 -38 -24 -60 -35 -91 -45 -125 -71 -125 -98 0 -10 -9 -20 -19 -23 -12 -3 -22 -18 -26 -38 -4 -19 -10 -38 -14 -44 -3 -5 -6 -12 -7 -15 0 -3 -6 -18 -13 -35 -18 -43 -6 -215 19 -271 11 -23 34 -53 52 -68 18 -14 39 -31 45 -38 48 -50 62 -63 96 -88 l38 -29 -57 -63 c-31 -35 -63 -69 -70 -77 -9 -10 -17 -11 -26 -4 -7 6 -25 13 -40 17 -32 7 -78 50 -78 72 0 8 -7 17 -15 20 -8 4 -13 10 -10 14 3 5 -3 15 -13 22 -11 7 -20 16 -21 20 -1 4 -11 23 -22 42 -11 20 -19 36 -17 38 1 2 -5 14 -15 28 -9 13 -17 34 -17 46 0 11 -3 24 -7 28 -5 4 -8 20 -9 34 -1 15 -5 82 -9 149 -6 94 -5 126 5 138 7 9 10 27 7 45 -4 16 -2 32 3 35 6 3 10 13 10 21 0 60 150 256 214 281 17 6 33 10 36 9 3 -1 21 -9 40 -18z m-2646 -5 c8 3 19 0 26 -7 16 -20 28 -357 20 -531 -5 -91 -5 -154 1 -161 5 -7 8 -76 7 -155 l-3 -144 -35 -2 c-19 -1 -60 1 -90 4 l-55 5 3 367 c3 424 9 399 -96 408 -55 5 -63 3 -86 -20 l-26 -26 0 -356 c0 -227 -4 -363 -10 -376 -9 -17 -22 -19 -101 -19 -69 0 -91 3 -95 14 -3 8 -1 56 6 107 6 50 13 237 16 415 2 178 7 330 10 339 7 17 64 81 64 71 0 -3 35 12 78 34 42 22 88 40 101 40 13 0 44 -11 68 -26 46 -26 63 -25 63 6 0 22 48 31 93 17 15 -5 34 -7 41 -4z m4667 -120 c-8 -240 -6 -403 4 -405 5 -2 19 16 31 40 12 23 28 50 37 60 8 9 22 33 31 52 9 19 36 71 61 115 61 109 100 194 111 238 l6 27 108 0 107 0 -5 -27 c-2 -16 -9 -33 -14 -40 -5 -7 -9 -56 -8 -110 1 -54 -1 -154 -5 -223 -4 -69 -3 -188 3 -265 6 -77 8 -186 5 -243 l-6 -103 -81 3 -81 3 -7 155 c-14 298 -19 365 -28 373 -11 12 -60 -22 -60 -42 0 -9 -6 -25 -14 -36 -7 -11 -14 -24 -15 -30 -1 -5 -11 -23 -21 -40 -30 -46 -35 -56 -60 -110 -13 -27 -29 -62 -37 -77 -8 -16 -11 -28 -7 -28 5 0 3 -5 -4 -12 -7 -7 -12 -19 -12 -28 0 -8 -7 -28 -15 -44 -8 -15 -12 -32 -9 -38 3 -5 -2 -18 -12 -29 -14 -16 -31 -19 -107 -19 l-90 0 7 98 c10 162 9 733 -3 745 -30 30 -50 -19 -56 -136 -1 -32 -6 -61 -9 -64 -3 -4 -6 -19 -6 -34 0 -15 -5 -31 -11 -35 -6 -3 -8 -17 -5 -29 3 -13 2 -27 -4 -30 -6 -3 -10 -18 -10 -33 0 -55 -8 -103 -20 -117 -6 -8 -9 -23 -5 -34 3 -10 1 -22 -5 -26 -7 -5 -9 -20 -6 -40 4 -20 2 -36 -4 -40 -6 -4 -10 -22 -8 -40 1 -18 -3 -40 -10 -47 -6 -8 -11 -28 -11 -44 0 -16 -3 -44 -7 -61 l-6 -33 -135 0 c-128 0 -136 1 -153 22 -13 17 -16 28 -8 41 7 14 5 23 -6 36 -9 10 -13 26 -9 39 3 12 2 30 -2 39 -4 10 -7 32 -6 49 1 18 -3 35 -9 39 -6 4 -8 16 -5 26 4 11 1 27 -6 35 -12 14 -20 64 -19 116 0 15 -4 30 -10 33 -6 3 -8 16 -4 29 3 14 -1 27 -10 35 -8 7 -12 19 -9 27 3 8 2 22 -3 32 -8 17 -13 61 -14 114 -1 14 -7 31 -14 38 -8 6 -12 20 -9 30 3 11 0 26 -6 34 -6 7 -8 26 -5 43 4 18 1 33 -5 37 -6 4 -8 18 -5 31 3 12 1 26 -5 29 -6 4 -11 16 -11 27 0 17 8 19 95 19 81 0 94 -2 88 -15 -3 -9 2 -24 11 -34 12 -13 14 -21 7 -26 -15 -9 -14 -40 2 -54 8 -6 12 -23 9 -39 -7 -49 22 -63 119 -60 l84 3 17 35 c10 20 17 55 16 81 -1 25 5 59 13 77 15 35 12 34 284 40 l100 2 -4 -127z m-2367 84 c3 -17 1 -48 -6 -67 -8 -24 -12 -166 -12 -465 l-1 -430 -90 -3 -90 -3 0 446 c-1 333 -4 448 -13 457 -15 15 -15 38 -2 72 9 26 11 26 109 26 l99 0 6 -33z m3487 20 c13 -10 16 -33 14 -142 -1 -71 -3 -183 -4 -247 l-1 -118 -95 0 -94 0 -3 153 -3 152 -29 -2 c-37 -3 -100 -68 -117 -121 -6 -20 -15 -42 -20 -48 -5 -6 -6 -14 -2 -17 3 -4 0 -13 -7 -22 -16 -19 -8 -181 9 -198 6 -6 11 -19 11 -28 0 -22 70 -110 110 -139 32 -23 70 -29 185 -30 l61 0 13 -46 c10 -35 11 -51 2 -70 -6 -14 -11 -36 -11 -49 0 -17 -6 -25 -17 -26 -85 -6 -216 5 -238 20 -5 4 -30 14 -54 21 -63 20 -216 174 -226 227 -4 21 -10 42 -13 48 -15 23 -26 300 -14 330 5 11 19 52 32 90 41 127 178 241 303 252 32 3 60 10 63 14 8 13 127 10 145 -4z m-4581 -1585 c0 -5 -14 -30 -31 -56 -37 -55 -56 -56 -83 -5 -29 54 -18 69 54 69 33 0 60 -4 60 -8z m210 4 c0 -2 -8 -23 -17 -47 -9 -24 -19 -82 -22 -128 l-6 -85 -28 43 c-23 35 -33 42 -53 38 -20 -3 -24 0 -24 20 0 22 71 138 95 155 10 8 55 11 55 4z m310 -3 c0 -4 -8 -30 -19 -58 -26 -71 -58 -174 -66 -213 -8 -39 -11 -38 -90 13 l-55 35 0 89 c0 49 4 101 10 115 9 26 11 26 115 26 58 0 105 -3 105 -7z m340 -10 c-1 -37 -22 -108 -37 -125 -8 -9 -31 -23 -51 -29 -20 -6 -70 -38 -111 -70 l-76 -58 -3 62 c-3 59 19 180 39 220 8 15 25 17 124 17 103 0 115 -2 115 -17z m145 8 c18 -7 14 -12 -29 -40 -28 -17 -53 -31 -56 -31 -3 0 -4 16 -2 34 5 42 38 56 87 37z m3822 -1 l712 0 7 -47 c4 -27 7 -142 7 -258 -2 -616 -169 -1187 -511 -1750 -160 -264 -417 -556 -664 -756 -164 -133 -185 -148 -418 -294 -341 -214 -745 -359 -1180 -424 -347 -53 -803 -35 -1155 45 -188 42 -428 119 -565 181 -135 61 -198 94 -328 170 -257 150 -448 293 -652 490 -109 105 -287 309 -356 408 -136 196 -218 340 -317 560 -54 121 -149 366 -161 417 -6 26 -5 27 18 17 32 -15 73 -4 87 24 7 12 25 37 40 55 20 22 29 44 29 67 0 19 5 35 11 35 6 0 38 -12 71 -27 l60 -27 -7 -55 c-11 -79 -10 -108 6 -127 20 -25 93 -53 155 -60 69 -8 94 10 94 68 0 46 21 59 51 33 16 -15 19 -30 18 -87 -1 -54 2 -73 17 -89 50 -55 122 -38 154 37 20 45 48 68 74 58 13 -5 16 -22 15 -90 -2 -87 8 -114 40 -114 10 0 28 11 40 24 13 14 37 30 54 37 18 7 51 30 74 52 22 22 46 37 51 33 15 -9 32 -90 32 -154 0 -67 15 -91 48 -73 29 15 132 130 132 147 0 8 6 14 13 14 34 0 76 -83 77 -151 0 -19 6 -44 14 -55 13 -17 16 -17 30 -4 8 8 32 44 54 80 53 87 67 85 67 -7 0 -99 13 -109 59 -45 69 95 98 70 45 -39 -31 -66 -32 -70 -16 -87 17 -16 20 -15 53 26 20 23 42 42 50 42 20 0 64 -74 64 -107 0 -16 -10 -56 -22 -90 -21 -61 -21 -63 -3 -83 26 -28 40 -25 90 21 41 38 44 39 54 20 17 -32 13 -52 -24 -114 -19 -32 -35 -67 -35 -78 0 -43 50 -34 121 22 20 16 42 29 48 29 14 0 15 -37 1 -45 -5 -3 -10 -13 -10 -22 0 -9 -14 -38 -30 -65 -24 -39 -28 -53 -19 -64 16 -20 27 -18 61 11 28 24 58 33 58 18 0 -20 -52 -107 -89 -150 -43 -50 -49 -71 -29 -91 21 -21 65 -13 142 25 73 36 76 36 95 19 20 -18 20 -19 2 -55 -10 -20 -22 -56 -26 -81 -5 -35 -17 -56 -53 -92 -41 -43 -44 -50 -34 -72 6 -13 20 -27 31 -31 27 -8 91 10 133 39 48 32 96 47 163 49 46 2 60 -2 69 -16 9 -15 6 -22 -22 -45 -18 -15 -32 -36 -32 -48 0 -26 -34 -58 -82 -78 -44 -19 -52 -30 -44 -62 7 -27 72 -63 112 -64 12 0 50 20 85 45 130 93 206 114 166 46 -9 -16 -17 -46 -17 -67 0 -32 -7 -44 -45 -80 -47 -44 -58 -81 -30 -104 12 -10 21 -8 49 9 19 12 58 29 88 37 29 9 61 23 70 31 28 25 109 13 190 -28 57 -29 126 -49 171 -49 23 0 51 -8 67 -20 42 -30 106 -50 161 -50 26 0 51 -4 54 -10 3 -5 14 -10 24 -10 9 0 35 -18 56 -40 35 -35 44 -40 86 -40 44 0 49 3 102 60 43 47 61 60 85 60 97 0 147 38 157 122 l7 56 50 4 c59 6 95 30 126 87 13 23 47 59 75 80 29 21 58 46 66 55 8 9 30 24 48 31 19 8 65 44 102 79 37 36 105 87 151 114 225 131 298 178 388 250 30 23 61 42 69 42 14 0 105 44 218 104 69 37 145 94 152 114 4 9 24 40 45 69 21 29 38 55 38 59 0 3 19 27 43 54 62 69 117 181 117 239 0 45 -4 55 -85 187 -78 128 -116 155 -161 113 -13 -12 -24 -32 -24 -44 0 -12 -16 -38 -36 -59 -29 -29 -39 -34 -54 -26 -29 16 -40 12 -51 -17 l-11 -28 -9 23 c-11 30 -59 27 -73 -4 -9 -20 -11 -20 -38 -5 -27 15 -30 15 -43 -3 -8 -10 -16 -23 -18 -29 -2 -6 -12 -5 -26 3 -41 21 -178 14 -257 -14 -38 -14 -106 -34 -150 -45 -88 -22 -203 -68 -272 -108 -23 -14 -71 -35 -107 -48 -47 -16 -81 -37 -120 -74 -58 -55 -70 -58 -153 -41 -40 9 -57 8 -93 -5 -24 -9 -67 -24 -95 -32 l-51 -15 -76 41 c-64 36 -81 41 -111 35 -24 -4 -36 -2 -36 5 0 6 4 11 10 11 5 0 33 9 62 20 77 29 192 140 208 200 6 25 21 69 33 98 21 53 21 54 2 68 -28 21 -42 17 -67 -16 -17 -23 -30 -30 -56 -30 l-35 0 6 41 c3 23 15 51 26 63 12 12 21 33 21 47 2 74 89 260 144 305 17 14 103 96 191 182 141 139 172 164 258 210 54 29 126 62 161 72 104 32 183 101 160 138 -26 42 -84 59 -229 66 -270 13 -309 -7 -629 -320 -99 -97 -110 -105 -252 -175 -82 -40 -192 -98 -244 -129 -52 -31 -129 -76 -170 -100 -41 -24 -104 -73 -140 -109 -62 -63 -68 -73 -109 -189 -24 -67 -47 -120 -51 -117 -4 3 -11 26 -15 53 -10 66 -38 147 -50 145 -6 -2 -11 -50 -13 -110 -3 -104 -4 -107 -17 -75 -20 46 -38 32 -29 -24 4 -29 3 -44 -4 -44 -6 0 -13 15 -16 33 -2 17 -12 87 -20 154 -17 126 -39 199 -57 188 -6 -4 -7 -29 -3 -65 8 -70 -2 -150 -19 -150 -14 0 -35 47 -84 184 -42 121 -80 199 -93 191 -15 -9 -12 -37 11 -126 11 -44 19 -82 17 -85 -12 -11 -88 184 -88 223 0 16 -7 27 -19 30 -22 6 -72 72 -121 161 -19 36 -40 63 -45 61 -24 -9 9 -99 82 -230 24 -42 43 -89 43 -103 0 -27 -52 -140 -69 -150 -15 -10 -20 6 -31 105 -16 152 -20 164 -62 229 -22 34 -45 78 -52 98 -7 20 -19 37 -27 37 -16 0 -16 -39 2 -128 7 -32 9 -82 5 -115 -18 -163 -18 -162 -38 -162 -17 0 -18 7 -15 72 4 64 2 74 -19 95 -13 13 -32 23 -43 23 -11 0 -27 3 -36 6 -21 9 -51 69 -59 122 -6 39 -3 47 35 98 49 65 44 85 -16 60 -21 -9 -40 -15 -42 -13 -2 2 -4 51 -5 108 -3 119 2 133 74 198 52 47 73 48 82 3 4 -15 21 -45 38 -66 35 -43 66 -45 85 -6 18 35 73 52 151 44 46 -5 72 -14 92 -30 15 -13 37 -24 48 -24 28 0 119 -43 147 -70 21 -19 23 -28 18 -76 -4 -33 -1 -65 7 -84 11 -27 10 -33 -6 -51 -35 -39 -11 -139 37 -154 10 -4 19 -13 19 -21 0 -17 67 -48 125 -57 66 -11 216 37 200 63 -4 6 -37 10 -74 10 -59 0 -74 4 -112 30 -24 16 -49 30 -54 30 -6 0 -11 18 -11 40 -2 51 15 52 69 4 l40 -37 81 5 c93 6 137 22 190 68 45 40 36 54 -23 34 -25 -8 -72 -18 -106 -21 -58 -5 -63 -4 -97 26 -20 17 -40 31 -46 31 -6 0 -20 20 -31 45 -15 34 -29 49 -51 57 -24 8 -29 14 -24 27 4 9 10 42 12 73 3 49 1 59 -17 70 -12 7 -21 20 -21 28 -1 38 -33 57 -107 63 -42 3 -82 13 -98 23 -18 12 -36 15 -64 10 -25 -4 -52 -1 -75 9 -19 8 -50 15 -69 15 -41 0 -67 39 -67 100 l0 43 33 -8 c17 -4 42 -7 55 -6 149 11 241 -17 252 -77 6 -32 42 -51 115 -61 45 -6 60 -14 94 -49 22 -22 51 -48 65 -57 21 -14 24 -20 15 -37 -14 -27 -6 -44 33 -68 42 -25 110 -26 203 -1 80 20 142 50 168 79 27 29 9 33 -53 12 -69 -24 -129 -25 -174 -3 -28 13 -34 21 -30 38 3 13 -1 27 -10 34 -20 17 -21 41 -1 41 21 0 67 -22 87 -42 13 -13 34 -18 69 -18 50 0 53 2 115 65 69 72 97 130 92 191 -4 52 -28 51 -48 -2 -22 -58 -46 -92 -83 -114 -38 -24 -113 -26 -141 -5 -11 8 -28 15 -37 15 -9 0 -36 16 -59 35 -48 40 -94 46 -140 18 -28 -16 -29 -16 -58 15 -17 18 -39 32 -49 32 -11 0 -35 11 -54 25 -19 14 -41 24 -51 22 -21 -6 -160 63 -166 82 -4 12 164 13 1204 8 665 -4 1529 -7 1921 -7z m-3671 -198 c-9 -26 -45 -72 -57 -72 -10 0 -13 133 -2 144 4 3 20 -6 36 -22 21 -21 27 -35 23 -50z m-140 -39 c-3 -21 -6 -52 -6 -69 0 -27 -12 -42 -72 -95 l-71 -64 6 85 c5 74 8 87 28 100 13 8 42 29 64 47 22 17 44 32 49 32 5 1 6 -16 2 -36z m-236 -210 c-1 -32 -16 -102 -24 -110 -7 -8 -76 45 -76 59 0 16 66 78 84 78 11 0 16 -9 16 -27z m216 -194 c-3 -17 -6 -54 -6 -81 0 -44 -2 -49 -15 -38 -21 17 -30 6 -27 -33 3 -28 -6 -41 -63 -97 -36 -35 -65 -60 -65 -54 0 16 40 95 71 141 37 53 21 66 -27 23 -38 -33 -50 -34 -40 -2 8 24 151 172 166 172 9 0 10 -10 6 -31z m33 -420 c1 -8 -6 -24 -14 -35 -13 -17 -14 -11 -13 66 l0 85 13 -50 c7 -27 14 -57 14 -66z m-79 46 c0 -12 -24 -55 -32 -55 -12 0 -10 17 4 40 12 18 28 27 28 15z m679 -230 c0 -26 -2 -27 -9 -10 -5 11 -9 31 -9 45 -1 20 1 22 9 10 5 -8 9 -28 9 -45z m2539 -688 c3 -22 -6 -37 -36 -67 -39 -39 -42 -40 -109 -40 -83 0 -138 28 -138 70 0 21 9 29 55 47 45 19 71 22 140 20 85 -2 85 -2 88 -30z m-413 -66 c59 -34 132 -109 141 -145 15 -60 -3 -94 -110 -204 -56 -59 -123 -139 -148 -179 -26 -39 -56 -76 -67 -82 -31 -17 -69 -13 -80 8 -17 31 -1 150 25 197 34 59 31 87 -16 138 -22 24 -40 50 -40 58 0 9 20 32 45 52 25 21 45 44 45 52 0 7 9 19 21 26 11 7 29 28 41 46 16 26 60 57 88 61 3 0 28 -12 55 -28z m-614 -306 c26 -14 62 -62 143 -188 28 -44 25 -132 -7 -237 -46 -145 -76 -175 -152 -150 -75 25 -83 106 -20 199 48 73 52 101 18 133 -15 14 -42 33 -59 41 -42 21 -87 92 -80 123 9 36 72 94 102 94 14 0 38 -7 55 -15z"/>
 <path d="M2493 5235 c-8 -23 3 -149 16 -172 6 -10 17 -45 24 -78 11 -54 15 -60 37 -60 18 0 25 5 25 20 1 11 4 25 8 31 3 6 9 38 13 70 4 33 11 65 16 71 6 7 7 20 4 29 -4 9 -1 22 5 30 6 7 9 25 7 41 -3 28 -4 28 -76 31 -59 2 -73 0 -79 -13z"/>
 <path d="M1913 5154 c-4 -11 -8 -89 -8 -174 0 -153 0 -155 22 -158 36 -5 119 84 128 136 10 61 -17 147 -53 164 -15 8 -39 22 -54 32 -27 18 -28 18 -35 0z"/>
 <path d="M8643 5235 c-8 -24 4 -157 19 -191 6 -16 17 -49 22 -74 8 -30 17 -46 30 -48 26 -5 42 13 27 31 -9 12 -8 16 3 20 9 4 16 29 21 69 4 35 12 69 17 75 6 7 7 20 4 29 -4 9 -1 22 5 30 6 7 9 25 7 41 -3 28 -4 28 -76 31 -59 2 -73 0 -79 -13z"/>
 <path d="M5693 5235 c-8 -23 5 -165 17 -179 5 -7 15 -39 22 -71 12 -54 16 -60 38 -60 18 0 25 5 25 20 0 11 3 25 7 30 3 6 9 37 13 70 4 33 12 66 17 72 6 7 7 20 4 29 -4 9 -1 22 5 30 6 7 9 25 7 41 -3 28 -4 28 -76 31 -59 2 -73 0 -79 -13z"/>
 <path d="M6762 3538 c-7 -7 -12 -18 -12 -26 0 -23 72 -133 84 -129 18 7 10 63 -15 114 -26 51 -38 60 -57 41z"/>
 <path d="M6682 3478 c-19 -19 -15 -33 34 -103 45 -64 57 -74 69 -55 7 12 -39 127 -62 152 -19 21 -25 22 -41 6z"/>
 <path d="M6582 3428 c-22 -22 -13 -43 39 -93 27 -28 66 -76 86 -108 32 -53 61 -71 56 -36 -3 25 -31 113 -46 150 -34 77 -101 121 -135 87z"/>
 <path d="M6452 3398 c-26 -26 -5 -54 58 -78 19 -8 46 -22 59 -32 15 -12 28 -15 34 -9 6 6 -8 32 -37 70 -38 48 -53 61 -75 61 -15 0 -32 -5 -39 -12z"/>
 <path d="M6352 3328 c-21 -21 -13 -52 28 -108 22 -30 47 -65 55 -78 9 -12 21 -20 26 -16 21 13 -23 149 -63 192 -25 25 -30 26 -46 10z"/>
 <path d="M6452 3308 c-19 -19 -15 -31 49 -128 33 -51 64 -103 69 -114 4 -12 15 -27 23 -34 60 -50 -11 191 -76 261 -28 29 -46 34 -65 15z"/>
 <path d="M6264 3254 l-17 -25 73 -71 c88 -85 105 -80 60 18 -49 108 -82 130 -116 78z"/>
 <path d="M6200 3175 l-23 -25 54 -57 c30 -32 59 -58 64 -58 30 0 -13 126 -51 152 -18 12 -23 10 -44 -12z"/>
 <path d="M6111 3086 c-11 -13 -5 -24 36 -71 48 -55 58 -62 66 -47 10 16 -54 126 -75 130 -8 2 -20 -4 -27 -12z"/>
 <path d="M6037 3022 c-23 -25 -21 -37 6 -55 12 -8 44 -36 70 -63 90 -91 77 -3 -15 101 -35 40 -39 41 -61 17z"/>
 <path d="M5950 2925 c-10 -12 -7 -19 15 -39 60 -56 106 -41 55 18 -35 39 -51 44 -70 21z"/>
 <path d="M5922 2848 c-18 -18 -15 -23 24 -53 49 -38 68 -20 30 30 -29 38 -36 41 -54 23z"/>
 <path d="M7356 2852 c-3 -5 23 -40 59 -78 55 -59 68 -67 82 -58 41 26 22 67 -52 109 -51 29 -82 38 -89 27z"/>
 <path d="M6985 2821 c-3 -5 4 -27 14 -48 11 -21 27 -68 34 -106 20 -94 45 -118 80 -79 17 19 13 53 -13 101 -6 13 -10 25 -7 27 2 3 16 -21 31 -51 19 -41 31 -55 44 -53 30 6 24 36 -21 105 -54 84 -72 100 -84 78 -8 -13 -12 -12 -33 10 -25 27 -35 30 -45 16z m90 -61 c3 -5 4 -10 1 -10 -3 0 -8 5 -11 10 -3 6 -4 10 -1 10 3 0 8 -4 11 -10z"/>
 <path d="M7125 2820 c-4 -6 0 -19 8 -28 8 -9 31 -52 50 -94 42 -92 74 -116 109 -81 19 19 20 25 8 53 -7 17 -25 48 -40 68 -30 42 -125 99 -135 82z"/>
 <path d="M7265 2790 c-3 -5 11 -42 32 -82 32 -61 42 -73 63 -73 22 0 25 4 23 34 -1 25 -13 45 -49 82 -50 51 -59 56 -69 39z"/>
 <path d="M5904 2766 c-7 -18 12 -46 32 -46 24 0 24 17 -1 40 -22 20 -25 21 -31 6z"/>
 <path d="M6926 2771 c-6 -9 42 -119 64 -146 17 -20 30 -10 30 24 0 42 -80 146 -94 122z"/>
 <path d="M7365 2760 c-9 -14 65 -111 83 -108 29 6 23 27 -19 73 -43 46 -53 52 -64 35z"/>
 <path d="M6715 2741 c-7 -13 79 -189 102 -207 16 -14 47 -8 64 12 9 11 6 22 -14 52 -42 59 -144 156 -152 143z"/>
 <path d="M6845 2720 c-8 -13 72 -170 88 -171 24 -3 42 3 56 16 12 12 5 25 -53 90 -68 75 -80 84 -91 65z"/>
 <path d="M5865 2700 c-10 -16 16 -43 28 -31 11 11 2 41 -12 41 -5 0 -13 -5 -16 -10z"/>
 <path d="M6599 2705 c-6 -5 72 -167 91 -190 8 -10 25 -15 44 -13 67 6 34 83 -75 173 -40 34 -51 40 -60 30z"/>
 <path d="M6516 2692 c-4 -6 7 -41 23 -77 17 -35 35 -82 41 -104 13 -50 32 -66 59 -51 12 6 21 19 21 28 0 51 -127 231 -144 204z"/>
 <path d="M5826 2641 c-4 -5 -2 -12 3 -15 5 -4 12 -2 15 3 4 5 2 12 -3 15 -5 4 -12 2 -15 -3z"/>
 <path d="M6456 2592 c-5 -8 26 -91 53 -142 13 -23 46 -18 49 7 5 36 -87 158 -102 135z"/>
 <path d="M6415 2500 c-4 -6 0 -22 9 -35 9 -13 16 -31 16 -38 0 -8 7 -20 16 -27 22 -19 50 10 36 36 -18 34 -69 77 -77 64z"/>
 <path d="M6375 2430 c-7 -12 22 -70 36 -70 18 0 21 28 4 54 -18 27 -30 32 -40 16z"/>
 </g>

</svg>